<svg width="121" height="75" viewBox="0 0 121 75" fill="none" xmlns="http://www.w3.org/2000/svg">
<path d="M5.33994 66.538C5.82722 66.9382 6.70989 67.1385 7.99194 67.1385C9.37789 67.1385 10.5601 66.6864 11.5426 65.7822C11.6624 65.6599 11.9141 65.3932 12.2855 64.9745L15.1931 65.9378C14.4822 66.8493 13.9669 67.4534 13.6475 67.7499C12.0858 69.1987 10.1966 69.9247 7.98795 69.9247C5.77928 69.9247 3.90611 69.1987 2.34447 67.7499C0.782821 66.301 0 64.5486 0 62.4996C0 60.4503 0.782821 58.7015 2.34447 57.249C3.90611 55.8006 5.7873 55.0742 7.98795 55.0742C9.87714 55.0742 11.5346 55.6039 12.9605 56.6638C13.1961 56.8452 13.4238 57.0415 13.6475 57.249C13.7393 57.3343 14.0069 57.6086 14.4462 58.068L12.9844 59.4351L5.33196 66.5343L5.33994 66.538ZM10.1966 58.2015C9.86912 57.9678 9.13422 57.8496 7.99194 57.8496C6.61405 57.8496 5.43981 58.3053 4.4613 59.2091C3.48275 60.1169 2.99549 61.2137 2.99549 62.4996C2.99549 63.5519 3.12329 64.2336 3.37491 64.5449L10.2006 58.2015H10.1966Z" fill="white"/>
<path d="M21.4863 66.6957C21.8338 67.0071 22.2451 67.1663 22.7204 67.1663C23.1957 67.1663 23.6071 67.0107 23.9506 66.6957C24.294 66.3808 24.4618 65.9955 24.4618 65.5361C24.4618 65.0768 24.294 64.7172 23.9546 64.4023C23.7189 64.1834 23.2197 63.85 22.4528 63.3983C21.4064 62.8682 20.6595 62.4016 20.2202 61.9901C19.4533 61.2786 19.0699 60.4227 19.0699 59.4223C19.0699 58.422 19.4533 57.5548 20.2202 56.8361C20.987 56.1173 21.9137 55.7617 23 55.7617C24.0863 55.7617 24.989 56.0988 25.7119 56.7769C26.2271 57.2548 26.5546 57.7885 26.6944 58.3774L23.8707 59.1335C23.8068 58.9147 23.7389 58.774 23.675 58.7036C23.5073 58.5479 23.2836 58.4703 23 58.4703C22.7164 58.4703 22.4768 58.5628 22.2771 58.7518C22.0774 58.9369 21.9736 59.1629 21.9736 59.4223C21.9736 59.6818 22.0734 59.9042 22.2691 60.0856C22.4488 60.2413 22.8482 60.5079 23.4753 60.8784C24.6375 61.4676 25.4803 62.0086 26.0035 62.4941C26.9101 63.3464 27.3654 64.3576 27.3654 65.5285C27.3654 66.6994 26.9141 67.7479 26.0115 68.5966C25.1088 69.4449 24.0105 69.8673 22.7204 69.8673C21.4304 69.8673 20.344 69.4413 19.4334 68.589C18.8063 68.0074 18.3949 67.2814 18.1992 66.4142L21.0909 65.8398C21.1747 66.24 21.3066 66.5216 21.4823 66.6885L21.4863 66.6957Z" fill="white"/>
<path d="M42.3988 64.9745L45.3063 65.9378C44.5953 66.8493 44.0803 67.4534 43.7609 67.7499C42.1991 69.1987 40.3099 69.9247 38.1013 69.9247C35.8926 69.9247 34.0194 69.1987 32.4578 67.7499C30.8961 66.301 30.1133 64.5486 30.1133 62.4996C30.1133 60.4503 30.8961 58.7015 32.4578 57.249C34.0194 55.8006 35.9006 55.0742 38.1013 55.0742C40.3019 55.0742 42.1951 55.8006 43.7609 57.249C44.0803 57.5455 44.5953 58.1383 45.3063 59.0349L42.3988 60.0244C42.0234 59.5984 41.7717 59.3241 41.6399 59.2054C40.6654 58.3016 39.4872 57.8496 38.1013 57.8496C36.7154 57.8496 35.5491 58.3053 34.5706 59.2091C33.5921 60.1169 33.1048 61.2137 33.1048 62.4996C33.1048 63.7851 33.5921 64.8671 34.5706 65.7749C35.5491 66.6828 36.7273 67.1349 38.1013 67.1349C39.4752 67.1349 40.6694 66.6828 41.6519 65.7786C41.7717 65.6563 42.0234 65.3896 42.3948 64.9709L42.3988 64.9745Z" fill="white"/>
<path d="M61.1967 57.1097V56.1726H64.1162V69.5891H61.1967V67.907C59.7909 69.252 58.1653 69.9262 56.3121 69.9262C54.1035 69.9262 52.2183 69.2038 50.6607 67.7586C49.1032 66.3138 48.3242 64.5649 48.3242 62.516C48.3242 60.4667 49.1032 58.7178 50.6607 57.273C52.2183 55.8279 54.1035 55.1055 56.3121 55.1055C58.1653 55.1055 59.7948 55.776 61.1967 57.1097ZM61.1967 63.5051V61.5265C61.0289 60.6855 60.5777 59.9185 59.8468 59.2331C58.8645 58.3289 57.6863 57.8768 56.3082 57.8768C54.9302 57.8768 53.7402 58.3289 52.7614 59.2331C51.783 60.1373 51.2958 61.2301 51.2958 62.516C51.2958 63.8015 51.783 64.8835 52.7614 65.7913C53.7402 66.6991 54.9224 67.1512 56.3082 67.1512C57.6941 67.1512 58.8645 66.6991 59.8468 65.7949C60.5777 65.1095 61.025 64.3461 61.1967 63.5015V63.5051Z" fill="white"/>
<path d="M71.5324 67.906V74.0789H68.625V56.1679H71.5324V57.3794C72.9382 55.853 74.572 55.0859 76.433 55.0859C78.6416 55.0859 80.5269 55.8083 82.0848 57.2535C83.6424 58.6983 84.4209 60.4472 84.4209 62.4961C84.4209 64.5454 83.6424 66.2943 82.0848 67.7467C80.5269 69.1951 78.6416 69.9215 76.433 69.9215C74.572 69.9215 72.9382 69.247 71.5324 67.9024V67.906ZM71.5324 61.4587V63.5559C71.7123 64.3821 72.1636 65.127 72.8944 65.7975C73.8689 66.7017 75.0471 67.1538 76.433 67.1538C77.8189 67.1538 79.0014 66.7017 79.9798 65.7939C80.9582 64.8861 81.4454 63.7892 81.4454 62.5037C81.4454 61.2178 80.9582 60.1322 79.9798 59.2208C79.0014 58.3093 77.8189 57.8536 76.433 57.8536C75.0471 57.8536 73.8689 58.3093 72.8944 59.2208C72.1636 59.8917 71.7123 60.6362 71.5324 61.4624V61.4587Z" fill="white"/>
<path d="M92.4261 66.538C92.9133 66.9382 93.7959 67.1385 95.0777 67.1385C96.4636 67.1385 97.6462 66.6864 98.6284 65.7822C98.7485 65.6599 99 65.3932 99.3715 64.9745L102.279 65.9378C101.568 66.8493 101.053 67.4534 100.733 67.7499C99.1716 69.1987 97.2825 69.9247 95.0738 69.9247C92.8652 69.9247 90.9921 69.1987 89.4302 67.7499C87.8688 66.301 87.0859 64.5486 87.0859 62.4996C87.0859 60.4503 87.8688 58.7015 89.4302 57.249C90.9921 55.8006 92.873 55.0742 95.0738 55.0742C96.963 55.0742 98.6206 55.6039 100.046 56.6638C100.282 56.8452 100.51 57.0415 100.733 57.249C100.825 57.3343 101.093 57.6086 101.532 58.068L100.07 59.4351L92.4178 66.5343L92.4261 66.538ZM97.2825 58.2015C96.9552 57.9678 96.22 57.8496 95.0777 57.8496C93.7001 57.8496 92.5258 58.3053 91.5474 59.2091C90.5686 60.1169 90.0813 61.2137 90.0813 62.4996C90.0813 63.5519 90.2092 64.2336 90.4606 64.5449L97.2864 58.2015H97.2825Z" fill="white"/>
<path d="M110.149 66.538C110.636 66.9382 111.519 67.1385 112.801 67.1385C114.187 67.1385 115.369 66.6864 116.352 65.7822C116.471 65.6599 116.723 65.3932 117.094 64.9745L120.002 65.9378C119.291 66.8493 118.776 67.4534 118.456 67.7499C116.895 69.1987 115.006 69.9247 112.797 69.9247C110.588 69.9247 108.715 69.1987 107.153 67.7499C105.591 66.301 104.809 64.5486 104.809 62.4996C104.809 60.4503 105.591 58.7015 107.153 57.249C108.715 55.8006 110.596 55.0742 112.797 55.0742C114.686 55.0742 116.343 55.6039 117.769 56.6638C118.005 56.8452 118.232 57.0415 118.456 57.249C118.548 57.3343 118.815 57.6086 119.255 58.068L117.793 59.4351L110.141 66.5343L110.149 66.538ZM115.006 58.2015C114.678 57.9678 113.943 57.8496 112.801 57.8496C111.423 57.8496 110.248 58.3053 109.27 59.2091C108.292 60.1169 107.804 61.2137 107.804 62.4996C107.804 63.5519 107.932 64.2336 108.184 64.5449L115.009 58.2015H115.006Z" fill="white"/>
<path d="M51.616 39.1771C51.0919 39.1771 50.5916 38.9037 50.3484 38.435C50.0164 37.7885 50.3107 37.0073 51.0078 36.6993C52.7621 35.9225 54.5581 34.8767 55.3158 34.2302C54.8481 34.0045 54.2355 33.8223 53.6321 33.6444C51.7144 33.0802 48.8095 32.2297 48.875 28.845C48.9309 25.8031 52.3642 23.9111 55.129 22.388C56.3401 21.7198 57.8513 20.8866 58.1599 20.3659C58.4404 19.8886 58.609 19.4026 58.6415 18.9643L47.1957 4.50983L24.3317 38.2441C23.9201 38.8516 23.0547 39.0382 22.3952 38.652C21.7404 38.2701 21.5392 37.4673 21.9555 36.8555L45.9186 1.50266C46.1666 1.13815 46.5923 0.908161 47.0552 0.895143C47.523 0.882125 47.9629 1.0774 48.2386 1.42455L61.1722 17.7622C61.3265 17.9575 61.4202 18.1919 61.4388 18.4348C61.5229 19.4503 61.2281 20.5785 60.6156 21.62C59.942 22.7612 58.3749 23.6248 56.5599 24.6271C54.399 25.8205 51.7096 27.3045 51.6814 28.8927C51.658 30.2163 52.3876 30.5504 54.4787 31.1622C55.6712 31.5137 56.9063 31.8739 57.8183 32.7244C58.3004 33.167 58.5058 33.7789 58.3936 34.3907C58.0758 36.1221 54.8576 37.8796 52.2194 39.0469C52.023 39.1337 51.8171 39.1727 51.616 39.1727V39.1771Z" fill="white"/>
<path d="M63.5883 39.7368C63.0503 39.7368 62.5357 39.446 62.3021 38.96C61.9887 38.3005 62.3069 37.5324 63.0178 37.2417C65.464 36.2349 66.1749 35.4278 66.1749 33.64C66.1749 32.8763 64.5099 32.4727 62.4937 32.0604C60.3002 31.6091 57.5636 31.0494 57.76 28.7625C57.9377 26.697 59.4532 25.8204 60.7957 25.048C61.7546 24.4926 62.7464 23.9241 63.6771 22.848C65.0058 21.3075 64.7062 20.5091 63.9624 18.9946C63.7382 18.539 63.8176 18.0096 64.1592 17.6234L73.8511 6.76628C74.122 6.46253 74.5339 6.28462 74.9595 6.29327C75.3852 6.30196 75.7875 6.48855 76.0493 6.80534L101.439 37.6235C101.912 38.1963 101.79 39.0121 101.177 39.4504C100.564 39.8887 99.6806 39.7802 99.2081 39.2074L74.8893 9.691L66.8719 18.6692C67.5222 20.1446 67.9574 22.0539 65.8662 24.4753C64.6408 25.8986 63.3312 26.6536 62.2787 27.2611C61.0346 27.9771 60.6696 28.2462 60.5759 28.8276C61.0016 29.088 62.2973 29.3527 63.1019 29.5176C65.5858 30.0253 68.9861 30.7239 68.9861 33.64C68.9861 37.1549 66.666 38.5912 64.1592 39.6196C63.9767 39.6934 63.7803 39.7325 63.593 39.7325L63.5883 39.7368Z" fill="white"/>
</svg>
