<svg width="44" height="29" viewBox="0 0 44 29" fill="none" xmlns="http://www.w3.org/2000/svg">
<path d="M22.011 2.55636e-06C17.116 2.55636e-06 12.2247 1.47541 7.99517 4.4281H0L3.59883 8.44595C1.95911 9.97946 0.809631 11.9862 0.301401 14.2027C-0.20683 16.4191 -0.0500399 18.7415 0.751173 20.8647C1.55239 22.988 2.96055 24.8128 4.79067 26.0995C6.62079 27.3862 8.78727 28.0745 11.0055 28.0741C13.7772 28.0766 16.4467 27.0006 18.4763 25.0631L22 29L25.5237 25.0668C27.552 27.0024 30.2196 28.0769 32.989 28.0741C35.9057 28.0741 38.7031 26.885 40.7659 24.7683C42.8287 22.6515 43.988 19.7805 43.989 16.7865C43.9907 15.2163 43.6724 13.6631 43.0545 12.2267C42.4366 10.7903 41.5328 9.50246 40.4012 8.44595L44 4.4281H36.025C31.893 1.54074 27.0096 -0.00229245 22.011 2.55636e-06ZM22 3.68852C24.8068 3.68852 27.6155 4.25873 30.2573 5.38787C25.5622 7.23212 22 11.5454 22 16.5701C22 11.5435 18.4397 7.23212 13.7427 5.38787C16.3591 4.26849 19.1654 3.69159 22 3.6904V3.68852ZM11.0037 9.14977C11.9809 9.14977 12.9486 9.34735 13.8514 9.73123C14.7543 10.1151 15.5746 10.6778 16.2656 11.3871C16.9566 12.0964 17.5047 12.9385 17.8787 13.8652C18.2527 14.792 18.4452 15.7853 18.4452 16.7884C18.4452 17.7915 18.2527 18.7848 17.8787 19.7116C17.5047 20.6383 16.9566 21.4804 16.2656 22.1897C15.5746 22.899 14.7543 23.4617 13.8514 23.8455C12.9486 24.2294 11.9809 24.427 11.0037 24.427C9.03006 24.427 7.13728 23.6222 5.74173 22.1897C4.34618 20.7572 3.56217 18.8143 3.56217 16.7884C3.56217 14.7625 4.34618 12.8196 5.74173 11.3871C7.13728 9.95456 9.03006 9.14977 11.0037 9.14977ZM32.989 9.15354C33.9659 9.15317 34.9332 9.35031 35.8359 9.7337C36.7385 10.1171 37.5588 10.6792 38.2498 11.388C38.9408 12.0968 39.489 12.9384 39.8632 13.8646C40.2374 14.7909 40.4301 15.7838 40.4305 16.7865C40.4309 17.7892 40.2388 18.7822 39.8653 19.7088C39.4918 20.6354 38.9442 21.4773 38.2537 22.1866C37.5632 22.896 36.7434 23.4587 35.841 23.8428C34.9386 24.2269 33.9714 24.4247 32.9945 24.4251C31.0216 24.4259 29.1293 23.6221 27.7337 22.1906C26.3382 20.7592 25.5537 18.8173 25.553 16.7922C25.5523 14.767 26.3353 12.8245 27.7298 11.392C29.1243 9.95949 31.0161 9.15429 32.989 9.15354ZM11.0037 12.7856C9.96897 12.7856 8.97665 13.2075 8.24501 13.9585C7.51337 14.7096 7.10233 15.7282 7.10233 16.7903C7.10233 17.8524 7.51337 18.871 8.24501 19.622C8.97665 20.373 9.96897 20.7949 11.0037 20.7949C12.0384 20.7949 13.0307 20.373 13.7623 19.622C14.494 18.871 14.905 17.8524 14.905 16.7903C14.905 15.7282 14.494 14.7096 13.7623 13.9585C13.0307 13.2075 12.0384 12.7856 11.0037 12.7856ZM32.989 12.7856C31.9543 12.7856 30.962 13.2075 30.2303 13.9585C29.4987 14.7096 29.0877 15.7282 29.0877 16.7903C29.0877 17.8524 29.4987 18.871 30.2303 19.622C30.962 20.373 31.9543 20.7949 32.989 20.7949C34.0237 20.7949 35.016 20.373 35.7477 19.622C36.4793 18.871 36.8903 17.8524 36.8903 16.7903C36.8903 15.7282 36.4793 14.7096 35.7477 13.9585C35.016 13.2075 34.0237 12.7856 32.989 12.7856Z" fill="#093A3A"/>
</svg>
