<svg width="45" height="30" viewBox="0 0 45 30" fill="none" xmlns="http://www.w3.org/2000/svg">
<path d="M44.0577 4.707C43.803 3.79862 43.3067 2.97622 42.6217 2.32723C41.9173 1.65828 41.054 1.17976 40.1133 0.936841C36.5925 0.00929194 22.4869 0.00929215 22.4869 0.00929215C16.6064 -0.0575801 10.7274 0.236541 4.883 0.889995C3.94223 1.15086 3.08055 1.64007 2.37459 2.31411C1.68093 2.9812 1.1785 3.80381 0.916034 4.70513C0.285543 8.10004 -0.0207924 11.5472 0.00115706 15C-0.0213399 18.4497 0.284244 21.8957 0.916034 25.2948C1.17287 26.1924 1.67343 27.0113 2.36896 27.6728C3.06449 28.3342 3.93063 28.812 4.883 29.065C8.45065 29.9907 22.4869 29.9907 22.4869 29.9907C28.3748 30.0576 34.2613 29.7635 40.1133 29.11C41.054 28.8671 41.9173 28.3885 42.6217 27.7196C43.3064 27.0707 43.8021 26.2482 44.0559 25.3398C44.7028 21.9462 45.0174 18.4977 44.9951 15.0431C45.0438 11.5739 44.7296 8.10907 44.0577 4.70513V4.707ZM18.0025 21.416V8.58584L29.7384 15.0019L18.0025 21.416Z" fill="#093A3A"/>
</svg>
