<svg width="79" height="72" viewBox="0 0 79 72" fill="none" xmlns="http://www.w3.org/2000/svg">
<path d="M69.4655 64H54.4828V57.3333C60.9824 57.3245 67.2132 54.7931 71.8091 50.2942C76.405 45.7952 78.991 39.6958 79 33.3333C79 30.5044 77.852 27.7913 75.8085 25.7909C73.765 23.7905 70.9934 22.6667 68.1034 22.6667C65.2135 22.6667 62.4419 23.7905 60.3984 25.7909C58.3549 27.7913 57.2069 30.5044 57.2069 33.3333C57.2069 34.0406 56.9199 34.7189 56.409 35.219C55.8981 35.719 55.2052 36 54.4828 36V14.6667C54.4828 10.7768 52.9042 7.0463 50.0944 4.29577C47.2846 1.54523 43.4737 0 39.5 0C35.5263 0 31.7154 1.54523 28.9056 4.29577C26.0958 7.0463 24.5172 10.7768 24.5172 14.6667V22.6667C23.7948 22.6667 23.1019 22.3857 22.591 21.8856C22.0801 21.3855 21.7931 20.7072 21.7931 20C21.7931 17.171 20.6451 14.4579 18.6016 12.4575C16.5581 10.4571 13.7865 9.33333 10.8966 9.33333C8.00661 9.33333 5.23503 10.4571 3.19153 12.4575C1.14803 14.4579 0 17.171 0 20C0.00900848 26.3625 2.59496 32.4619 7.19088 36.9608C11.7868 41.4598 18.0176 43.9912 24.5172 44V64H9.53448C8.45075 64 7.41141 64.4214 6.6451 65.1716C5.87879 65.9217 5.44828 66.9391 5.44828 68C5.44828 69.0609 5.87879 70.0783 6.6451 70.8284C7.41141 71.5786 8.45075 72 9.53448 72H69.4655C70.5492 72 71.5886 71.5786 72.3549 70.8284C73.1212 70.0783 73.5517 69.0609 73.5517 68C73.5517 66.9391 73.1212 65.9217 72.3549 65.1716C71.5886 64.4214 70.5492 64 69.4655 64ZM28.6034 36H24.5172C20.1823 36 16.025 34.3143 12.9597 31.3137C9.89445 28.3131 8.17241 24.2435 8.17241 20C8.17241 19.2928 8.45942 18.6145 8.9703 18.1144C9.48117 17.6143 10.1741 17.3333 10.8966 17.3333C11.619 17.3333 12.3119 17.6143 12.8228 18.1144C13.3337 18.6145 13.6207 19.2928 13.6207 20C13.6297 22.8263 14.7806 25.5343 16.8221 27.5328C18.8637 29.5312 21.6301 30.6579 24.5172 30.6667H28.6034C29.6872 30.6667 30.7265 30.2452 31.4928 29.4951C32.2591 28.7449 32.6897 27.7275 32.6897 26.6667V14.6667C32.6897 12.8986 33.4072 11.2029 34.6844 9.95262C35.9615 8.70238 37.6938 8 39.5 8C41.3062 8 43.0385 8.70238 44.3156 9.95262C45.5928 11.2029 46.3103 12.8986 46.3103 14.6667V40C46.3103 41.0609 46.7409 42.0783 47.5072 42.8284C48.2735 43.5786 49.3128 44 50.3966 44H54.4828C57.3699 43.9912 60.1363 42.8646 62.1779 40.8661C64.2194 38.8676 65.3703 36.1596 65.3793 33.3333C65.3793 32.6261 65.6663 31.9478 66.1772 31.4477C66.6881 30.9476 67.381 30.6667 68.1034 30.6667C68.8259 30.6667 69.5188 30.9476 70.0297 31.4477C70.5406 31.9478 70.8276 32.6261 70.8276 33.3333C70.8276 37.5768 69.1056 41.6465 66.0403 44.647C62.9751 47.6476 58.8177 49.3333 54.4828 49.3333H50.3966C49.3128 49.3333 48.2735 49.7548 47.5072 50.5049C46.7409 51.2551 46.3103 52.2725 46.3103 53.3333V64H32.6897V40C32.6897 38.9391 32.2591 37.9217 31.4928 37.1716C30.7265 36.4214 29.6872 36 28.6034 36Z" fill="#093A3A"/>
</svg>
