<svg width="65" height="65" viewBox="0 0 65 65" fill="none" xmlns="http://www.w3.org/2000/svg">
<g clip-path="url(#clip0_2089_107)">
<path d="M32.9539 59.0156C25.8539 59.0156 19.2039 56.2656 14.2039 51.2656C3.85391 40.9156 3.85391 24.1156 14.2039 13.7656C19.2039 8.76562 25.8539 6.01562 32.9539 6.01562C40.0539 6.01562 46.7039 8.76562 51.7039 13.7656C56.7039 18.7656 59.4539 25.4156 59.4539 32.5156C59.4539 39.6156 56.7039 46.2656 51.7039 51.2656C46.7039 56.2656 40.0539 59.0156 32.9539 59.0156ZM32.9539 9.01562C26.6539 9.01562 20.7539 11.4656 16.3539 15.9156C7.20391 25.0656 7.20391 39.9656 16.3539 49.1656C20.7539 53.5656 26.6539 56.0156 32.9539 56.0156C39.2539 56.0156 45.1539 53.5656 49.5539 49.1156C53.9539 44.6656 56.4539 38.8156 56.4539 32.5156C56.4539 26.2156 54.0039 20.3156 49.5539 15.9156C45.1039 11.5156 39.2539 9.01562 32.9539 9.01562Z" fill="#BCF6F6"/>
<path d="M27.6523 39.3148C27.2523 39.3148 26.9023 39.1648 26.6023 38.8648C26.0023 38.2648 26.0023 37.3148 26.6023 36.7648L37.2023 26.1648C37.8023 25.5648 38.7523 25.5648 39.3023 26.1648C39.9023 26.7648 39.9023 27.7148 39.3023 28.2648L28.7023 38.8648C28.4023 39.1648 28.0523 39.3148 27.6523 39.3148Z" fill="#BCF6F6"/>
<path d="M38.2523 39.3148C37.8523 39.3148 37.5023 39.1648 37.2023 38.8648L26.6023 28.2648C26.0023 27.6648 26.0023 26.7148 26.6023 26.1648C27.2023 25.5648 28.1523 25.5648 28.7023 26.1648L39.3023 36.7648C39.9023 37.3648 39.9023 38.3148 39.3023 38.8648C39.0023 39.1648 38.6523 39.3148 38.2523 39.3148Z" fill="#BCF6F6"/>
</g>
<defs>
<clipPath id="clip0_2089_107">
<rect width="64" height="64" fill="white" transform="translate(0.953125 0.515625)"/>
</clipPath>
</defs>
</svg>
