<svg width="30" height="30" viewBox="0 0 30 30" fill="none" xmlns="http://www.w3.org/2000/svg">
<g clip-path="url(#clip0_1619_79)">
<path d="M19.5927 30H10.5869C10.4038 29.9844 10.2207 29.9591 10.0376 29.9532C8.8395 29.9221 7.6434 29.8753 6.47262 29.587C4.01028 28.9812 2.17716 27.5786 1.08625 25.2662C0.412226 23.8364 0.203784 22.2994 0.186252 20.739C0.151187 17.4896 0.116122 14.2403 0.141446 10.9909C0.153135 9.62922 0.234953 8.25584 0.433654 6.91169C0.745342 4.81558 1.75443 3.07403 3.46872 1.78831C4.9356 0.685714 6.6343 0.247403 8.43236 0.118831C9.14924 0.0681818 9.86807 0.038961 10.5869 0H19.5343C20.2337 0.038961 20.9311 0.075974 21.6304 0.116883C22.8538 0.188961 24.0499 0.399351 25.172 0.905844C27.9246 2.14675 29.3739 4.35584 29.8259 7.28571C29.9057 7.8039 29.9447 8.32792 30.0031 8.84805V20.9182C29.9876 21.0234 29.9661 21.1266 29.9544 21.2318C29.8921 21.8221 29.8609 22.4182 29.7635 23.0026C29.446 24.8844 28.6434 26.5169 27.1999 27.8006C25.6356 29.1896 23.7538 29.7448 21.7161 29.8831C21.009 29.9318 20.3018 29.963 19.5927 30.0019V30ZM15.085 27.3487V27.3019C15.8759 27.3019 16.6648 27.3253 17.4538 27.2981C19.1564 27.2357 20.8726 27.2571 22.5557 27.0448C24.8583 26.7526 26.4148 25.4201 26.9759 23.1253C27.2038 22.1981 27.2778 21.2143 27.2973 20.2558C27.3518 17.4838 27.3694 14.7097 27.3479 11.9377C27.3363 10.4864 27.2895 9.02532 27.12 7.58571C26.8356 5.16623 25.322 3.53377 22.9298 3.05455C21.907 2.85 20.8414 2.78961 19.7953 2.77403C17.0096 2.73312 14.22 2.72532 11.4343 2.75844C10.1135 2.77403 8.77911 2.82078 7.47392 3.01169C5.1869 3.34481 3.63041 4.83312 3.17067 7.08896C2.97197 8.06688 2.90184 9.08182 2.88041 10.0812C2.82976 12.5026 2.81028 14.924 2.83755 17.3455C2.85508 19.0227 2.89794 20.7058 3.06158 22.3734C3.22911 24.0896 4.04339 25.4864 5.57846 26.3766C6.51742 26.9201 7.55768 27.1481 8.62716 27.1851C10.7798 27.261 12.9324 27.2981 15.085 27.3526V27.3487Z" fill="white"/>
<path d="M7.39065 14.9898C7.40233 10.7314 10.864 7.27555 15.101 7.29697C19.3634 7.3184 22.8017 10.782 22.7725 15.0249C22.7432 19.2872 19.3108 22.7158 15.0816 22.708C10.8329 22.7002 7.38091 19.2366 7.39065 14.9918V14.9898ZM15.064 19.9924C17.8264 20.0022 20.051 17.7911 20.0666 15.0268C20.0803 12.2606 17.8751 10.0262 15.1166 10.0087C12.3445 9.99113 10.1082 12.2119 10.1004 14.9898C10.0926 17.7541 12.3056 19.9846 15.064 19.9944V19.9924Z" fill="white"/>
<path d="M23.1009 5.19732C24.1061 5.20706 24.8872 6.0116 24.8717 7.02069C24.8561 8.0103 24.0574 8.79342 23.0658 8.78563C22.0723 8.77979 21.2775 7.95966 21.2892 6.95641C21.3009 5.97264 22.1093 5.18758 23.0989 5.19537L23.1009 5.19732Z" fill="white"/>
</g>
<defs>
<clipPath id="clip0_1619_79">
<rect width="30" height="30" fill="white"/>
</clipPath>
</defs>
</svg>
