<svg width="75" height="75" viewBox="0 0 75 75" fill="none" xmlns="http://www.w3.org/2000/svg">
<path d="M51.7576 0.886734L51.6472 0.790844L51.5485 0.898834L49.7023 2.91997L49.702 2.92021C45.5825 7.44944 42.1909 9.47059 39.3698 10.7928C38.381 11.2553 37.4513 11.6026 36.5528 11.9383C36.1675 12.0823 35.7878 12.2241 35.4117 12.372C34.1629 12.8629 32.9669 13.4157 31.7801 14.3233L31.78 14.3233C29.2762 16.2405 25.6451 19.908 24.0945 26.4374C20.8432 27.1597 18.4495 28.4156 16.5557 30.0511C15.0976 31.31 13.9166 32.7057 12.6544 34.1974C12.2895 34.6286 11.9178 35.0678 11.5308 35.5141L11.5231 35.5229L11.5169 35.5328C11.4925 35.5718 11.4893 35.6105 11.4893 35.6323C11.4893 35.6378 11.4895 35.6432 11.4899 35.6482C11.1737 36.0119 10.8629 36.3783 10.5528 36.7439C8.4283 39.2481 6.33118 41.7201 2.70512 43.1156L2.70335 43.1163L0.944349 43.8191L0.85 43.8568V43.9584V74V74.15H1H54.651V74.1502L54.659 74.1498C57.8066 73.9801 59.9767 71.8033 61.2855 69.6852L61.2855 69.6851C62.592 67.569 63.3149 65.2795 63.6804 63.4004C64.1486 61.017 64.8085 56.4001 65.3508 52.3835C65.6221 50.3742 65.8642 48.5137 66.0385 47.1554C66.1256 46.4763 66.1958 45.9228 66.2442 45.539L66.2998 45.0961L66.3143 44.9806L66.3172 44.9566L66.4022 44.71L66.4104 44.6862V44.6611V44.3969H66.4106L66.4102 44.3898C66.3196 42.4772 65.5413 40.8551 64.5767 39.3667L67.7134 30.0568L72.7159 22.5199L72.7178 22.5172L74.1231 20.4988L74.1987 20.3902L74.1004 20.3017L72.2514 18.6347L72.2491 18.6327L53.7812 2.64364L53.781 2.6435L51.7576 0.886734ZM62.1554 27.8428L59.6595 35.2363C58.3643 34.7162 57.0177 34.3536 55.5263 34.4082H55.3518L55.351 34.4082L37.5872 34.4954L37.5865 34.4954L34.7728 34.4954H34.6228V34.6454V45.5286C34.4283 47.0286 33.9156 48.0576 33.2009 48.8152C32.4821 49.5772 31.5488 50.0754 30.4957 50.4953L30.4951 50.4955C30.1571 50.6319 29.9747 50.6604 29.8042 50.6726C29.7666 50.6753 29.7283 50.6772 29.688 50.6792C29.578 50.6846 29.454 50.6907 29.294 50.7157V34.5611H29.2942L29.2939 34.5544C29.0639 29.3622 29.8752 26.0358 31.0933 23.7364C32.3111 21.4375 33.943 20.1497 35.393 19.0424L35.3933 19.0422C35.5798 18.899 35.8643 18.7449 36.2481 18.5678C36.6301 18.3917 37.1008 18.1972 37.6548 17.9714C37.7474 17.9337 37.8424 17.8951 37.9395 17.8555C39.0024 17.4232 40.3318 16.8825 41.8725 16.1609L41.8727 16.1608C44.6692 14.8455 48.1306 12.5033 51.8434 8.93488L66.3232 21.4961L62.5358 27.0811L62.2835 27.3385L62.2525 27.37L62.2436 27.4133L62.1554 27.8428ZM23.5306 33.1106C23.5144 33.2951 23.4845 33.4675 23.4537 33.6456C23.4488 33.6736 23.444 33.7017 23.4391 33.7301C23.3918 34.0071 23.348 34.2991 23.3652 34.6491V57.1337V57.2837H23.5152L26.3296 57.2837L26.3313 57.2837L26.3296 57.1337L26.3314 57.2837H26.3316L26.3321 57.2837L26.334 57.2837L26.341 57.2836L26.3679 57.283C26.3915 57.2824 26.4261 57.2814 26.4711 57.2797C26.5613 57.2762 26.6931 57.2698 26.8611 57.258C27.1972 57.2346 27.6785 57.1898 28.2612 57.1047C29.4262 56.9346 30.9995 56.6026 32.6302 55.9548L32.6302 55.9547C35.8911 54.6582 39.8485 51.6152 40.5504 46.2604L40.5517 46.2507V46.2409V40.4166L55.5291 40.3303L55.5299 40.3303L55.6163 40.3303V40.3306L55.6245 40.3301C56.8204 40.2647 57.9935 40.6752 58.887 41.4718C59.7761 42.2644 60.3162 43.375 60.3907 44.5625C60.3883 44.5772 60.3859 44.5945 60.3836 44.6104C60.3789 44.6443 60.3727 44.6901 60.3656 44.7441C60.3513 44.8521 60.3329 44.9941 60.3139 45.1416L60.306 45.2033C60.2804 45.402 60.2546 45.6028 60.2363 45.7396H48.8449H48.6949V45.8896V51.5117V51.6616H48.8449H59.4912C59.3307 52.8139 59.1778 53.736 59.0219 54.6773C58.9025 55.3976 58.7812 56.1292 58.6532 56.9837H48.8449H48.6949V57.1337V62.7558V62.9058H48.8449H57.712C57.3807 64.1839 56.8689 65.4086 56.1917 66.5431C55.4304 67.7825 54.8063 68.1967 54.2948 68.2279H6.77881V47.4723C11.0053 45.2114 13.7505 42.0504 15.5791 39.9448C15.7164 39.7867 15.8486 39.6346 15.9757 39.4892L15.9758 39.4892C16.4425 38.9555 16.8723 38.4548 17.2739 37.9869C18.5166 36.5394 19.4891 35.4067 20.4464 34.5852C20.8472 34.2428 21.367 33.9695 21.9436 33.7228C22.3318 33.5568 22.7377 33.4059 23.146 33.2542C23.2741 33.2066 23.4025 33.1589 23.5306 33.1106Z" fill="#093A3A" stroke="#093A3A" stroke-width="0.3"/>
</svg>
