<svg width="80" height="52" viewBox="0 0 80 52" fill="none" xmlns="http://www.w3.org/2000/svg">
<path d="M3.55992 46.3172C3.88477 46.5956 4.47321 46.7349 5.3279 46.7349C6.25186 46.7349 7.03999 46.4204 7.69499 45.7915C7.77486 45.7065 7.94262 45.521 8.19023 45.2298L10.1286 45.8998C9.65469 46.5337 9.31119 46.9539 9.09821 47.1601C8.05712 48.1678 6.79767 48.6728 5.32524 48.6728C3.85281 48.6728 2.60405 48.1678 1.56296 47.1601C0.521875 46.1524 0 44.9335 0 43.5084C0 42.083 0.521875 40.8666 1.56296 39.8564C2.60405 38.849 3.85816 38.3438 5.32524 38.3438C6.58469 38.3438 7.68967 38.7122 8.64022 39.4494C8.79731 39.5755 8.94909 39.7121 9.09821 39.8564C9.15944 39.9157 9.33784 40.1065 9.63073 40.426L8.6562 41.3769L3.5546 46.3147L3.55992 46.3172ZM6.79767 40.5189C6.57934 40.3563 6.08942 40.2741 5.3279 40.2741C4.40932 40.2741 3.6265 40.5911 2.97417 41.2197C2.32181 41.8511 1.99697 42.614 1.99697 43.5084C1.99697 44.2403 2.08217 44.7145 2.24992 44.931L6.80033 40.5189H6.79767Z" fill="#106666"/>
<path d="M14.3242 46.4253C14.5558 46.6419 14.8301 46.7526 15.1469 46.7526C15.4638 46.7526 15.738 46.6444 15.967 46.4253C16.196 46.2063 16.3078 45.9383 16.3078 45.6188C16.3078 45.2993 16.196 45.0492 15.9697 44.8301C15.8126 44.6779 15.4797 44.446 14.9685 44.1319C14.2709 43.7631 13.773 43.4386 13.4801 43.1524C12.9689 42.6575 12.7133 42.0622 12.7133 41.3664C12.7133 40.6707 12.9689 40.0675 13.4801 39.5676C13.9913 39.0676 14.6091 38.8203 15.3333 38.8203C16.0575 38.8203 16.6593 39.0548 17.1412 39.5264C17.4847 39.8588 17.703 40.23 17.7962 40.6396L15.9138 41.1655C15.8712 41.0134 15.8259 40.9154 15.7833 40.8665C15.6715 40.7582 15.5223 40.7042 15.3333 40.7042C15.1443 40.7042 14.9845 40.7686 14.8514 40.9001C14.7182 41.0287 14.649 41.186 14.649 41.3664C14.649 41.5469 14.7156 41.7016 14.8461 41.8277C14.9659 41.936 15.2321 42.1215 15.6502 42.3791C16.425 42.789 16.9868 43.1653 17.3356 43.5029C17.94 44.0958 18.2436 44.7991 18.2436 45.6135C18.2436 46.4278 17.9427 47.1572 17.3409 47.7475C16.7392 48.3375 16.007 48.6312 15.1469 48.6312C14.2869 48.6312 13.5626 48.335 12.9556 47.7422C12.5375 47.3376 12.2633 46.8327 12.1328 46.2295L14.0606 45.83C14.1165 46.1084 14.2043 46.3042 14.3215 46.4203L14.3242 46.4253Z" fill="#106666"/>
<path d="M28.2645 45.2298L30.2028 45.8998C29.7288 46.5337 29.3855 46.9539 29.1725 47.1601C28.1313 48.1678 26.8719 48.6728 25.3995 48.6728C23.9271 48.6728 22.6783 48.1678 21.6372 47.1601C20.5961 46.1524 20.0742 44.9335 20.0742 43.5084C20.0742 42.083 20.5961 40.8666 21.6372 39.8564C22.6783 38.849 23.9324 38.3438 25.3995 38.3438C26.8666 38.3438 28.1287 38.849 29.1725 39.8564C29.3855 40.0626 29.7288 40.475 30.2028 41.0986L28.2645 41.7868C28.0142 41.4905 27.8464 41.2997 27.7586 41.2172C27.1089 40.5885 26.3234 40.2741 25.3995 40.2741C24.4756 40.2741 23.6981 40.5911 23.0457 41.2197C22.3934 41.8511 22.0685 42.614 22.0685 43.5084C22.0685 44.4025 22.3934 45.1551 23.0457 45.7865C23.6981 46.4179 24.4835 46.7324 25.3995 46.7324C26.3154 46.7324 27.1116 46.4179 27.7665 45.789C27.8464 45.704 28.0142 45.5185 28.2618 45.2273L28.2645 45.2298Z" fill="#106666"/>
<path d="M40.7964 39.7573V39.1055H42.7427V48.4372H40.7964V47.2672C39.8592 48.2028 38.7755 48.6716 37.5401 48.6716C36.0677 48.6716 34.8108 48.1692 33.7725 47.164C32.7342 46.1591 32.2148 44.9427 32.2148 43.5176C32.2148 42.0922 32.7342 40.8758 33.7725 39.8709C34.8108 38.8657 36.0677 38.3633 37.5401 38.3633C38.7755 38.3633 39.8618 38.8296 40.7964 39.7573ZM40.7964 44.2055V42.8294C40.6846 42.2444 40.3837 41.7109 39.8965 41.2342C39.2416 40.6053 38.4562 40.2908 37.5375 40.2908C36.6188 40.2908 35.8255 40.6053 35.1729 41.2342C34.5207 41.8631 34.1959 42.6232 34.1959 43.5176C34.1959 44.4117 34.5207 45.1643 35.1729 45.7957C35.8255 46.4271 36.6136 46.7416 37.5375 46.7416C38.4614 46.7416 39.2416 46.4271 39.8965 45.7982C40.3837 45.3215 40.682 44.7905 40.7964 44.203V44.2055Z" fill="#106666"/>
<path d="M47.6883 47.2684V51.5619H45.75V39.1041H47.6883V39.9468C48.6255 38.8851 49.7147 38.3516 50.9553 38.3516C52.4277 38.3516 53.6845 38.854 54.7231 39.8592C55.7615 40.8641 56.2805 42.0805 56.2805 43.5056C56.2805 44.931 55.7615 46.1474 54.7231 47.1576C53.6845 48.165 52.4277 48.6703 50.9553 48.6703C49.7147 48.6703 48.6255 48.2011 47.6883 47.2659V47.2684ZM47.6883 42.7841V44.2428C47.8082 44.8174 48.109 45.3355 48.5963 45.8019C49.2459 46.4308 50.0314 46.7452 50.9553 46.7452C51.8792 46.7452 52.6676 46.4308 53.3198 45.7994C53.9721 45.1679 54.2969 44.405 54.2969 43.5109C54.2969 42.6165 53.9721 41.8614 53.3198 41.2275C52.6676 40.5936 51.8792 40.2766 50.9553 40.2766C50.0314 40.2766 49.2459 40.5936 48.5963 41.2275C48.109 41.6941 47.8082 42.212 47.6883 42.7866V42.7841Z" fill="#106666"/>
<path d="M61.6187 46.3172C61.9435 46.5956 62.5319 46.7349 63.3864 46.7349C64.3103 46.7349 65.0987 46.4204 65.7535 45.7915C65.8336 45.7065 66.0012 45.521 66.2489 45.2298L68.1871 45.8998C67.7132 46.5337 67.3698 46.9539 67.1569 47.1601C66.1156 48.1678 64.8562 48.6728 63.3838 48.6728C61.9114 48.6728 60.6627 48.1678 59.6214 47.1601C58.5805 46.1524 58.0586 44.9335 58.0586 43.5084C58.0586 42.083 58.5805 40.8666 59.6214 39.8564C60.6627 38.849 61.9166 38.3438 63.3838 38.3438C64.6432 38.3438 65.7483 38.7122 66.6988 39.4494C66.856 39.5755 67.0077 39.7121 67.1569 39.8564C67.2181 39.9157 67.3964 40.1065 67.6892 40.426L66.7147 41.3769L61.6132 46.3147L61.6187 46.3172ZM64.8562 40.5189C64.638 40.3563 64.1479 40.2741 63.3864 40.2741C62.468 40.2741 61.6851 40.5911 61.0329 41.2197C60.3803 41.8511 60.0555 42.614 60.0555 43.5084C60.0555 44.2403 60.1408 44.7145 60.3084 44.931L64.8588 40.5189H64.8562Z" fill="#106666"/>
<path d="M73.4312 46.3172C73.756 46.5956 74.3444 46.7349 75.1992 46.7349C76.1231 46.7349 76.9112 46.4204 77.5663 45.7915C77.6461 45.7065 77.814 45.521 78.0613 45.2298L79.9999 45.8998C79.526 46.5337 79.1823 46.9539 78.9694 47.1601C77.9284 48.1678 76.669 48.6728 75.1966 48.6728C73.7239 48.6728 72.4752 48.1678 71.4342 47.1601C70.393 46.1524 69.8711 44.9335 69.8711 43.5084C69.8711 42.083 70.393 40.8666 71.4342 39.8564C72.4752 38.849 73.7294 38.3438 75.1966 38.3438C76.456 38.3438 77.5608 38.7122 78.5113 39.4494C78.6685 39.5755 78.8202 39.7121 78.9694 39.8564C79.0306 39.9157 79.2089 40.1065 79.502 40.426L78.5275 41.3769L73.426 46.3147L73.4312 46.3172ZM76.669 40.5189C76.4505 40.3563 75.9607 40.2741 75.1992 40.2741C74.2805 40.2741 73.4976 40.5911 72.8454 41.2197C72.1931 41.8511 71.8683 42.614 71.8683 43.5084C71.8683 44.2403 71.9533 44.7145 72.1212 44.931L76.6716 40.5189H76.669Z" fill="#106666"/>
<path d="M34.4104 27.2871C34.061 27.2871 33.7275 27.0969 33.5654 26.771C33.3441 26.3213 33.5403 25.778 34.005 25.5637C35.1745 25.0234 36.3718 24.2961 36.877 23.8463C36.5651 23.6894 36.1568 23.5626 35.7545 23.4389C34.476 23.0465 32.5395 22.4549 32.5831 20.1008C32.6204 17.985 34.9092 16.6691 36.7524 15.6097C37.5598 15.1449 38.5673 14.5654 38.773 14.2032C38.96 13.8712 39.0724 13.5332 39.0941 13.2283L31.4636 3.17474L16.2211 26.6382C15.9467 27.0607 15.3698 27.1905 14.9302 26.9219C14.4936 26.6563 14.3595 26.0979 14.637 25.6723L30.6122 1.08313C30.7775 0.829601 31.0613 0.669636 31.37 0.660582C31.6818 0.651527 31.9751 0.787346 32.1589 1.0288L40.7812 12.3923C40.8841 12.5281 40.9465 12.6911 40.9589 12.8601C41.015 13.5664 40.8185 14.3511 40.4101 15.0755C39.9611 15.8693 38.9164 16.4699 37.7064 17.1671C36.2657 17.9971 34.4729 19.0293 34.4541 20.134C34.4385 21.0545 34.9248 21.2869 36.3189 21.7125C37.1139 21.9569 37.9373 22.2075 38.5453 22.799C38.8667 23.1069 39.0036 23.5324 38.9288 23.958C38.717 25.1623 36.5715 26.3846 34.8127 27.1965C34.6818 27.2569 34.5445 27.2841 34.4104 27.2841V27.2871Z" fill="#106666"/>
<path d="M42.3921 27.6755C42.0335 27.6755 41.6905 27.4733 41.5347 27.1352C41.3258 26.6765 41.5379 26.1423 42.0118 25.94C43.6426 25.2398 44.1165 24.6784 44.1165 23.4349C44.1165 22.9037 43.0065 22.623 41.6624 22.3363C40.2001 22.0224 38.3758 21.6331 38.5067 20.0425C38.6251 18.6058 39.6355 17.9962 40.5305 17.4589C41.1697 17.0726 41.8309 16.6772 42.4514 15.9287C43.3371 14.8572 43.1374 14.3019 42.6415 13.2485C42.4921 12.9316 42.545 12.5634 42.7727 12.2948L49.234 4.74327C49.4146 4.532 49.6891 4.40826 49.9729 4.41427C50.2567 4.42031 50.5249 4.5501 50.6994 4.77044L67.6259 26.2057C67.9409 26.604 67.8596 27.1715 67.4513 27.4763C67.0427 27.7811 66.4534 27.7057 66.1384 27.3073L49.9261 6.77752L44.5812 13.0222C45.0147 14.0484 45.3049 15.3764 43.9108 17.0605C43.0938 18.0505 42.2208 18.5757 41.5191 18.9982C40.6897 19.4962 40.4464 19.6833 40.3839 20.0878C40.6677 20.2688 41.5315 20.453 42.0679 20.5677C43.7238 20.9208 45.9906 21.4067 45.9906 23.4349C45.9906 25.8797 44.444 26.8787 42.7727 27.594C42.6511 27.6453 42.5202 27.6725 42.3953 27.6725L42.3921 27.6755Z" fill="#106666"/>
</svg>
