<svg width="67" height="75" viewBox="0 0 67 75" fill="none" xmlns="http://www.w3.org/2000/svg">
<path d="M33.6869 37.1238C42.7755 37.1238 50.1433 29.756 50.1433 20.6674C50.1433 11.5787 42.7755 4.21094 33.6869 4.21094C24.5983 4.21094 17.2305 11.5787 17.2305 20.6674C17.2305 29.756 24.5983 37.1238 33.6869 37.1238Z" stroke="#093A3A" stroke-width="8"/>
<path d="M50.1145 44.0117H51.2712C53.6737 44.0124 55.9932 44.907 57.7941 46.5275C59.5949 48.148 60.7531 50.3828 61.051 52.8121L62.3359 63.2734C62.4514 64.2158 62.369 65.1725 62.094 66.08C61.819 66.9874 61.3577 67.8249 60.7408 68.5368C60.1239 69.2488 59.3655 69.8188 58.5158 70.2093C57.6662 70.5997 56.7448 70.8014 55.8128 70.8012H11.5543C10.6223 70.8014 9.70086 70.5997 8.85122 70.2093C8.00158 69.8188 7.24314 69.2488 6.62623 68.5368C6.00933 67.8249 5.54807 66.9874 5.27307 66.08C4.99807 65.1725 4.91562 64.2158 5.03119 63.2734L6.31281 52.8121C6.61086 50.3817 7.76996 48.1459 9.57216 46.5253C11.3744 44.9047 13.6955 44.0108 16.0991 44.0117H17.2526" stroke="#093A3A" stroke-width="8" stroke-linecap="round" stroke-linejoin="round"/>
</svg>
