<svg width="177" height="179" viewBox="0 0 177 179" fill="none" xmlns="http://www.w3.org/2000/svg">
<path fill-rule="evenodd" clip-rule="evenodd" d="M97.0935 0.191125C117.48 1.4653 136.593 11.6587 150.609 25.6745C167.173 43.5129 176.092 65.1738 176.092 90.6572C176.092 111.044 168.447 130.156 155.705 146.721C142.964 162.011 125.125 173.478 104.739 177.301C84.3518 181.123 63.9651 178.575 46.1267 168.382C28.2883 158.188 14.2725 142.898 6.62746 123.786C-1.01756 104.673 -2.29173 83.0122 4.07912 63.8996C10.45 43.5129 21.9175 26.9487 39.7559 15.4812C56.3201 4.01364 76.7068 -1.08304 97.0935 0.191125ZM103.464 164.559C120.029 160.737 135.319 151.817 146.786 137.801C156.98 123.786 163.35 107.221 162.076 89.383C162.076 68.9963 154.431 48.6096 140.415 34.5937C127.674 21.852 112.384 14.207 94.5452 12.9328C77.981 11.6587 60.1426 15.4812 46.1267 25.6745C32.1109 35.8679 21.9175 49.8838 16.8208 67.7221C11.7241 84.2863 11.7241 102.125 19.3692 118.689C27.0142 135.253 38.4817 147.995 53.7718 156.914C69.0618 165.833 86.9002 168.382 103.464 164.559V164.559Z" fill="white"/>
<path fill-rule="evenodd" clip-rule="evenodd" d="M63.9531 51.1912L73.8534 45.8906L131.191 84.1157V94.7168L73.8534 132.942L63.9531 127.641V51.1912ZM76.6948 63.0919V115.741L116.181 89.4163L76.6948 63.0919Z" fill="white"/>
</svg>
