<svg width="82" height="96" viewBox="0 0 82 96" fill="none" xmlns="http://www.w3.org/2000/svg">
<path d="M4.40997 2.81552C2.39063 4.58245 1.57027 5.84454 1.06544 7.99009C0.181977 12.2181 0.308186 84.4727 1.25475 88.1327C2.39063 92.2976 6.24 95.0742 10.9728 95.0742C14.696 95.0742 16.0843 94.317 37.035 81.1912C41.3892 78.4778 47.8258 74.4391 51.4228 72.2304C55.0197 70.0218 58.6167 67.8131 59.437 67.3083C60.2574 66.8034 63.9806 64.5317 67.7037 62.2599C78.4315 55.697 81.2081 52.7311 81.2081 47.7459C81.2081 42.8237 78.747 39.984 69.9755 34.6202C66.7572 32.6639 63.4126 30.5815 62.5923 30.0766C60.7622 28.8777 48.2045 21.242 46.3113 20.1061C45.5541 19.6644 42.0833 17.4558 38.6126 15.2471C33.1225 11.7132 24.5403 6.41248 16.9678 1.86896C15.2639 0.859285 13.6232 0.480658 10.8466 0.417554C7.37588 0.417554 6.87105 0.606867 4.40997 2.81552Z" fill="#D7F4DF"/>
</svg>
