<svg width="26" height="17" viewBox="0 0 26 17" fill="none" xmlns="http://www.w3.org/2000/svg">
<path d="M19.2669 16.8394C22.4661 16.8394 25.0566 14.246 25.0566 11.0471C25.0566 7.84794 22.4633 5.25739 19.2669 5.25739C18.7167 5.25739 18.184 5.33926 17.6805 5.48279C17.6864 5.36274 17.6893 5.24575 17.6981 5.1257C17.8238 3.50419 18.348 1.82405 19.2669 0.278696C18.2718 0.960634 16.6883 2.24261 15.412 4.34435C15.0577 4.92687 13.6441 7.35628 13.486 10.6902C13.4772 10.8686 13.4744 10.9566 13.4744 11.0501C13.4774 14.2464 16.0677 16.8398 19.2667 16.8398L19.2669 16.8394Z" fill="#54D077"/>
<path d="M5.84896 16.8398C9.04812 16.8398 11.6387 14.2465 11.6387 11.0501C11.6387 7.85098 9.0453 5.26043 5.84897 5.26043C5.29874 5.26043 4.76603 5.3423 4.26253 5.48584C4.26846 5.36578 4.27131 5.24879 4.28009 5.12874C4.40586 3.50724 4.92999 1.82709 5.84896 0.281739C4.85384 0.963677 3.27028 2.24565 1.994 4.34739C1.63977 4.92992 0.226094 7.35932 0.0680359 10.6932C0.0592565 10.8717 0.0563981 10.9597 0.0563981 11.0532C0.0592559 14.2466 2.64977 16.8397 5.84872 16.8397L5.84896 16.8398Z" fill="#54D077"/>
</svg>
