<svg width="26" height="18" viewBox="0 0 26 18" fill="none" xmlns="http://www.w3.org/2000/svg">
<path d="M5.88736 0.71918C2.68821 0.719179 0.0976558 3.31255 0.0976552 6.5115C0.0976547 9.71065 2.69103 12.3012 5.88736 12.3012C6.43758 12.3012 6.9703 12.2193 7.47379 12.0758C7.46787 12.1959 7.46501 12.3128 7.45623 12.4329C7.33047 14.0544 6.80633 15.7345 5.88736 17.2799C6.88249 16.598 8.46605 15.316 9.74232 13.2142C10.0966 12.6317 11.5102 10.2023 11.6683 6.86841C11.6771 6.68996 11.6799 6.60197 11.6799 6.50846C11.6769 3.31218 9.08656 0.718752 5.88761 0.718751L5.88736 0.71918Z" fill="#BCF6F6"/>
<path d="M19.3053 0.718751C16.1062 0.71875 13.5156 3.31212 13.5156 6.50846C13.5156 9.70761 16.109 12.2982 19.3053 12.2982C19.8556 12.2982 20.3883 12.2163 20.8918 12.0728C20.8858 12.1928 20.883 12.3098 20.8742 12.4299C20.7484 14.0514 20.2243 15.7315 19.3053 17.2769C20.3005 16.5949 21.884 15.3129 23.1603 13.2112C23.5145 12.6287 24.9282 10.1993 25.0863 6.86537C25.095 6.68692 25.0979 6.59892 25.0979 6.50542C25.095 3.31196 22.5045 0.718846 19.3056 0.718845L19.3053 0.718751Z" fill="#BCF6F6"/>
</svg>
