<svg width="73" height="73" viewBox="0 0 73 73" fill="none" xmlns="http://www.w3.org/2000/svg">
<mask id="path-1-outside-1_1619_155" maskUnits="userSpaceOnUse" x="0" y="0" width="73" height="73" fill="black">
<rect fill="white" width="73" height="73"/>
<path fill-rule="evenodd" clip-rule="evenodd" d="M15.2916 30.5839C15.2916 30.5839 16.894 30.367 19.2191 29.7438C25.3499 28.1009 36.5 23.6418 36.5 12.917C36.5 11.3522 36.1931 9.80265 35.5968 8.35693C35.0006 6.91122 34.1266 5.59761 33.0248 4.4911C31.9231 3.3846 30.6151 2.50687 29.1756 1.90804C27.7361 1.3092 26.1932 1.00099 24.6351 1.00099H13.0176C11.4467 0.980689 9.88752 1.27389 8.4304 1.86357C6.97328 2.45325 5.64726 3.32767 4.5293 4.43609C3.41133 5.54452 2.52367 6.86488 1.91782 8.32056C1.31198 9.77624 1 11.3383 1 12.916C1 14.4937 1.31198 16.0558 1.91782 17.5114C2.52367 18.9671 3.41133 20.2875 4.5293 21.3959C5.64726 22.5043 6.97328 23.3788 8.4304 23.9684C9.88752 24.5581 11.4467 24.8513 13.0176 24.831H15.2916V30.5839ZM19.2191 20.8866H13.0176C11.9648 20.9033 10.9193 20.7094 9.94192 20.3163C8.96451 19.9232 8.07474 19.3387 7.32442 18.5969C6.5741 17.8551 5.97822 16.9709 5.57148 15.9955C5.16475 15.0202 4.95528 13.9734 4.95528 12.916C4.95528 11.8586 5.16475 10.8118 5.57148 9.83646C5.97822 8.86115 6.5741 7.97685 7.32442 7.23506C8.07474 6.49327 8.96451 5.90881 9.94192 5.51572C10.9193 5.12262 11.9648 4.92874 13.0176 4.94538H24.6351C25.6774 4.94538 26.7096 5.15157 27.6726 5.55218C28.6356 5.95279 29.5106 6.53997 30.2477 7.28021C30.9848 8.02044 31.5694 8.89922 31.9683 9.86638C32.3672 10.8335 32.5725 11.8701 32.5725 12.917C32.5725 18.0112 29.0221 21.4033 24.1893 23.7443C22.5853 24.5097 20.9233 25.1461 19.2191 25.6475V20.8866ZM17.8444 52.278C22.1843 52.278 25.6994 48.7478 25.6994 44.3893C25.6994 40.0307 22.1843 36.5005 17.8444 36.5005C13.5046 36.5005 9.98948 40.0307 9.98948 44.3893C9.98948 48.7478 13.5046 52.278 17.8444 52.278ZM21.7719 44.3893C21.7719 45.4354 21.3581 46.4387 20.6216 47.1784C19.8851 47.9181 18.8861 48.3337 17.8444 48.3337C16.8028 48.3337 15.8038 47.9181 15.0673 47.1784C14.3308 46.4387 13.917 45.4354 13.917 44.3893C13.917 43.3432 14.3308 42.3399 15.0673 41.6002C15.8038 40.8605 16.8028 40.4449 17.8444 40.4449C18.8861 40.4449 19.8851 40.8605 20.6216 41.6002C21.3581 42.3399 21.7719 43.3432 21.7719 44.3893ZM1.15264 64.6378C1.15264 59.0407 12.2733 56.2224 17.8444 56.2224C23.4156 56.2224 34.5363 59.0427 34.5363 64.6378V72H1.15264V64.6378ZM5.08012 68.0556V64.6378C5.08012 64.6181 5.08012 64.5786 5.13118 64.48C5.19402 64.3577 5.33737 64.1428 5.64764 63.8548C6.29372 63.2533 7.37574 62.5966 8.87407 61.9911C11.8786 60.7782 15.5508 60.1668 17.8444 60.1668C20.1361 60.1668 23.8123 60.7782 26.8148 61.9911C28.3112 62.5966 29.3952 63.2533 30.0413 63.8548C30.3515 64.1428 30.4949 64.3577 30.5577 64.4781C30.6088 64.5767 30.6088 64.62 30.6088 64.6358V68.0556H5.08012ZM63.0105 44.3893C63.0105 48.7478 59.4954 52.278 55.1556 52.278C50.8157 52.278 47.3006 48.7478 47.3006 44.3893C47.3006 40.0307 50.8157 36.5005 55.1556 36.5005C59.4954 36.5005 63.0105 40.0307 63.0105 44.3893ZM55.1556 48.3337C56.1972 48.3337 57.1962 47.9181 57.9327 47.1784C58.6693 46.4387 59.083 45.4354 59.083 44.3893C59.083 43.3432 58.6693 42.3399 57.9327 41.6002C57.1962 40.8605 56.1972 40.4449 55.1556 40.4449C54.1139 40.4449 53.1149 40.8605 52.3784 41.6002C51.6419 42.3399 51.2281 43.3432 51.2281 44.3893C51.2281 45.4354 51.6419 46.4387 52.3784 47.1784C53.1149 47.9181 54.1139 48.3337 55.1556 48.3337ZM38.4637 64.6378C38.4637 59.0407 49.5844 56.2224 55.1556 56.2224C60.7267 56.2224 71.8474 59.0427 71.8474 64.6378V72H38.4637V64.6378ZM42.3912 68.0556V64.6378C42.3912 64.6181 42.3912 64.5786 42.4423 64.48C42.5051 64.3577 42.6485 64.1428 42.9568 63.8548C43.6048 63.2533 44.6888 62.5966 46.1852 61.9911C49.1897 60.7782 52.8619 60.1668 55.1556 60.1668C57.4472 60.1668 61.1234 60.7782 64.1259 61.9911C65.6223 62.5966 66.7063 63.2533 67.3543 63.8548C67.6626 64.1428 67.806 64.3577 67.8688 64.4781C67.9199 64.5767 67.9199 64.62 67.9199 64.6358V68.0556H42.3912ZM55.3519 31.5818C57.6495 32.3076 59.2794 32.5561 59.2794 32.5561V26.8032H59.9824C61.5533 26.8235 63.1125 26.5303 64.5696 25.9406C66.0267 25.351 67.3527 24.4765 68.4707 23.3681C69.5887 22.2597 70.4763 20.9393 71.0822 19.4836C71.688 18.028 72 16.4659 72 14.8882C72 13.3105 71.688 11.7484 71.0822 10.2928C70.4763 8.83707 69.5887 7.51671 68.4707 6.40828C67.3527 5.29986 66.0267 4.42544 64.5696 3.83576C63.1125 3.24608 61.5533 2.95288 59.9824 2.97318H52.2924C49.1456 2.97318 46.1278 4.22861 43.9026 6.4633C41.6775 8.69798 40.4275 11.7289 40.4275 14.8892C40.4275 25.3339 49.8279 29.8384 55.3519 31.5818ZM59.9824 22.8588H55.3519V27.4205C54.105 26.9733 52.8932 26.4327 51.7269 25.8033C47.6344 23.5728 44.355 20.2259 44.355 14.8872C44.3555 12.7733 45.192 10.7462 46.6805 9.25171C48.169 7.75716 50.1876 6.91757 52.2924 6.91757H59.9824C61.0352 6.90094 62.0807 7.09482 63.0581 7.48791C64.0355 7.88101 64.9253 8.46547 65.6756 9.20726C66.4259 9.94905 67.0218 10.8333 67.4285 11.8087C67.8353 12.784 68.0447 13.8308 68.0447 14.8882C68.0447 15.9456 67.8353 16.9924 67.4285 17.9677C67.0218 18.943 66.4259 19.8273 65.6756 20.5691C64.9253 21.3109 64.0355 21.8954 63.0581 22.2885C62.0807 22.6816 61.0352 22.8755 59.9824 22.8588Z"/>
</mask>
<path fill-rule="evenodd" clip-rule="evenodd" d="M15.2916 30.5839C15.2916 30.5839 16.894 30.367 19.2191 29.7438C25.3499 28.1009 36.5 23.6418 36.5 12.917C36.5 11.3522 36.1931 9.80265 35.5968 8.35693C35.0006 6.91122 34.1266 5.59761 33.0248 4.4911C31.9231 3.3846 30.6151 2.50687 29.1756 1.90804C27.7361 1.3092 26.1932 1.00099 24.6351 1.00099H13.0176C11.4467 0.980689 9.88752 1.27389 8.4304 1.86357C6.97328 2.45325 5.64726 3.32767 4.5293 4.43609C3.41133 5.54452 2.52367 6.86488 1.91782 8.32056C1.31198 9.77624 1 11.3383 1 12.916C1 14.4937 1.31198 16.0558 1.91782 17.5114C2.52367 18.9671 3.41133 20.2875 4.5293 21.3959C5.64726 22.5043 6.97328 23.3788 8.4304 23.9684C9.88752 24.5581 11.4467 24.8513 13.0176 24.831H15.2916V30.5839ZM19.2191 20.8866H13.0176C11.9648 20.9033 10.9193 20.7094 9.94192 20.3163C8.96451 19.9232 8.07474 19.3387 7.32442 18.5969C6.5741 17.8551 5.97822 16.9709 5.57148 15.9955C5.16475 15.0202 4.95528 13.9734 4.95528 12.916C4.95528 11.8586 5.16475 10.8118 5.57148 9.83646C5.97822 8.86115 6.5741 7.97685 7.32442 7.23506C8.07474 6.49327 8.96451 5.90881 9.94192 5.51572C10.9193 5.12262 11.9648 4.92874 13.0176 4.94538H24.6351C25.6774 4.94538 26.7096 5.15157 27.6726 5.55218C28.6356 5.95279 29.5106 6.53997 30.2477 7.28021C30.9848 8.02044 31.5694 8.89922 31.9683 9.86638C32.3672 10.8335 32.5725 11.8701 32.5725 12.917C32.5725 18.0112 29.0221 21.4033 24.1893 23.7443C22.5853 24.5097 20.9233 25.1461 19.2191 25.6475V20.8866ZM17.8444 52.278C22.1843 52.278 25.6994 48.7478 25.6994 44.3893C25.6994 40.0307 22.1843 36.5005 17.8444 36.5005C13.5046 36.5005 9.98948 40.0307 9.98948 44.3893C9.98948 48.7478 13.5046 52.278 17.8444 52.278ZM21.7719 44.3893C21.7719 45.4354 21.3581 46.4387 20.6216 47.1784C19.8851 47.9181 18.8861 48.3337 17.8444 48.3337C16.8028 48.3337 15.8038 47.9181 15.0673 47.1784C14.3308 46.4387 13.917 45.4354 13.917 44.3893C13.917 43.3432 14.3308 42.3399 15.0673 41.6002C15.8038 40.8605 16.8028 40.4449 17.8444 40.4449C18.8861 40.4449 19.8851 40.8605 20.6216 41.6002C21.3581 42.3399 21.7719 43.3432 21.7719 44.3893ZM1.15264 64.6378C1.15264 59.0407 12.2733 56.2224 17.8444 56.2224C23.4156 56.2224 34.5363 59.0427 34.5363 64.6378V72H1.15264V64.6378ZM5.08012 68.0556V64.6378C5.08012 64.6181 5.08012 64.5786 5.13118 64.48C5.19402 64.3577 5.33737 64.1428 5.64764 63.8548C6.29372 63.2533 7.37574 62.5966 8.87407 61.9911C11.8786 60.7782 15.5508 60.1668 17.8444 60.1668C20.1361 60.1668 23.8123 60.7782 26.8148 61.9911C28.3112 62.5966 29.3952 63.2533 30.0413 63.8548C30.3515 64.1428 30.4949 64.3577 30.5577 64.4781C30.6088 64.5767 30.6088 64.62 30.6088 64.6358V68.0556H5.08012ZM63.0105 44.3893C63.0105 48.7478 59.4954 52.278 55.1556 52.278C50.8157 52.278 47.3006 48.7478 47.3006 44.3893C47.3006 40.0307 50.8157 36.5005 55.1556 36.5005C59.4954 36.5005 63.0105 40.0307 63.0105 44.3893ZM55.1556 48.3337C56.1972 48.3337 57.1962 47.9181 57.9327 47.1784C58.6693 46.4387 59.083 45.4354 59.083 44.3893C59.083 43.3432 58.6693 42.3399 57.9327 41.6002C57.1962 40.8605 56.1972 40.4449 55.1556 40.4449C54.1139 40.4449 53.1149 40.8605 52.3784 41.6002C51.6419 42.3399 51.2281 43.3432 51.2281 44.3893C51.2281 45.4354 51.6419 46.4387 52.3784 47.1784C53.1149 47.9181 54.1139 48.3337 55.1556 48.3337ZM38.4637 64.6378C38.4637 59.0407 49.5844 56.2224 55.1556 56.2224C60.7267 56.2224 71.8474 59.0427 71.8474 64.6378V72H38.4637V64.6378ZM42.3912 68.0556V64.6378C42.3912 64.6181 42.3912 64.5786 42.4423 64.48C42.5051 64.3577 42.6485 64.1428 42.9568 63.8548C43.6048 63.2533 44.6888 62.5966 46.1852 61.9911C49.1897 60.7782 52.8619 60.1668 55.1556 60.1668C57.4472 60.1668 61.1234 60.7782 64.1259 61.9911C65.6223 62.5966 66.7063 63.2533 67.3543 63.8548C67.6626 64.1428 67.806 64.3577 67.8688 64.4781C67.9199 64.5767 67.9199 64.62 67.9199 64.6358V68.0556H42.3912ZM55.3519 31.5818C57.6495 32.3076 59.2794 32.5561 59.2794 32.5561V26.8032H59.9824C61.5533 26.8235 63.1125 26.5303 64.5696 25.9406C66.0267 25.351 67.3527 24.4765 68.4707 23.3681C69.5887 22.2597 70.4763 20.9393 71.0822 19.4836C71.688 18.028 72 16.4659 72 14.8882C72 13.3105 71.688 11.7484 71.0822 10.2928C70.4763 8.83707 69.5887 7.51671 68.4707 6.40828C67.3527 5.29986 66.0267 4.42544 64.5696 3.83576C63.1125 3.24608 61.5533 2.95288 59.9824 2.97318H52.2924C49.1456 2.97318 46.1278 4.22861 43.9026 6.4633C41.6775 8.69798 40.4275 11.7289 40.4275 14.8892C40.4275 25.3339 49.8279 29.8384 55.3519 31.5818ZM59.9824 22.8588H55.3519V27.4205C54.105 26.9733 52.8932 26.4327 51.7269 25.8033C47.6344 23.5728 44.355 20.2259 44.355 14.8872C44.3555 12.7733 45.192 10.7462 46.6805 9.25171C48.169 7.75716 50.1876 6.91757 52.2924 6.91757H59.9824C61.0352 6.90094 62.0807 7.09482 63.0581 7.48791C64.0355 7.88101 64.9253 8.46547 65.6756 9.20726C66.4259 9.94905 67.0218 10.8333 67.4285 11.8087C67.8353 12.784 68.0447 13.8308 68.0447 14.8882C68.0447 15.9456 67.8353 16.9924 67.4285 17.9677C67.0218 18.943 66.4259 19.8273 65.6756 20.5691C64.9253 21.3109 64.0355 21.8954 63.0581 22.2885C62.0807 22.6816 61.0352 22.8755 59.9824 22.8588Z" fill="#093A3A"/>
<path fill-rule="evenodd" clip-rule="evenodd" d="M15.2916 30.5839C15.2916 30.5839 16.894 30.367 19.2191 29.7438C25.3499 28.1009 36.5 23.6418 36.5 12.917C36.5 11.3522 36.1931 9.80265 35.5968 8.35693C35.0006 6.91122 34.1266 5.59761 33.0248 4.4911C31.9231 3.3846 30.6151 2.50687 29.1756 1.90804C27.7361 1.3092 26.1932 1.00099 24.6351 1.00099H13.0176C11.4467 0.980689 9.88752 1.27389 8.4304 1.86357C6.97328 2.45325 5.64726 3.32767 4.5293 4.43609C3.41133 5.54452 2.52367 6.86488 1.91782 8.32056C1.31198 9.77624 1 11.3383 1 12.916C1 14.4937 1.31198 16.0558 1.91782 17.5114C2.52367 18.9671 3.41133 20.2875 4.5293 21.3959C5.64726 22.5043 6.97328 23.3788 8.4304 23.9684C9.88752 24.5581 11.4467 24.8513 13.0176 24.831H15.2916V30.5839ZM19.2191 20.8866H13.0176C11.9648 20.9033 10.9193 20.7094 9.94192 20.3163C8.96451 19.9232 8.07474 19.3387 7.32442 18.5969C6.5741 17.8551 5.97822 16.9709 5.57148 15.9955C5.16475 15.0202 4.95528 13.9734 4.95528 12.916C4.95528 11.8586 5.16475 10.8118 5.57148 9.83646C5.97822 8.86115 6.5741 7.97685 7.32442 7.23506C8.07474 6.49327 8.96451 5.90881 9.94192 5.51572C10.9193 5.12262 11.9648 4.92874 13.0176 4.94538H24.6351C25.6774 4.94538 26.7096 5.15157 27.6726 5.55218C28.6356 5.95279 29.5106 6.53997 30.2477 7.28021C30.9848 8.02044 31.5694 8.89922 31.9683 9.86638C32.3672 10.8335 32.5725 11.8701 32.5725 12.917C32.5725 18.0112 29.0221 21.4033 24.1893 23.7443C22.5853 24.5097 20.9233 25.1461 19.2191 25.6475V20.8866ZM17.8444 52.278C22.1843 52.278 25.6994 48.7478 25.6994 44.3893C25.6994 40.0307 22.1843 36.5005 17.8444 36.5005C13.5046 36.5005 9.98948 40.0307 9.98948 44.3893C9.98948 48.7478 13.5046 52.278 17.8444 52.278ZM21.7719 44.3893C21.7719 45.4354 21.3581 46.4387 20.6216 47.1784C19.8851 47.9181 18.8861 48.3337 17.8444 48.3337C16.8028 48.3337 15.8038 47.9181 15.0673 47.1784C14.3308 46.4387 13.917 45.4354 13.917 44.3893C13.917 43.3432 14.3308 42.3399 15.0673 41.6002C15.8038 40.8605 16.8028 40.4449 17.8444 40.4449C18.8861 40.4449 19.8851 40.8605 20.6216 41.6002C21.3581 42.3399 21.7719 43.3432 21.7719 44.3893ZM1.15264 64.6378C1.15264 59.0407 12.2733 56.2224 17.8444 56.2224C23.4156 56.2224 34.5363 59.0427 34.5363 64.6378V72H1.15264V64.6378ZM5.08012 68.0556V64.6378C5.08012 64.6181 5.08012 64.5786 5.13118 64.48C5.19402 64.3577 5.33737 64.1428 5.64764 63.8548C6.29372 63.2533 7.37574 62.5966 8.87407 61.9911C11.8786 60.7782 15.5508 60.1668 17.8444 60.1668C20.1361 60.1668 23.8123 60.7782 26.8148 61.9911C28.3112 62.5966 29.3952 63.2533 30.0413 63.8548C30.3515 64.1428 30.4949 64.3577 30.5577 64.4781C30.6088 64.5767 30.6088 64.62 30.6088 64.6358V68.0556H5.08012ZM63.0105 44.3893C63.0105 48.7478 59.4954 52.278 55.1556 52.278C50.8157 52.278 47.3006 48.7478 47.3006 44.3893C47.3006 40.0307 50.8157 36.5005 55.1556 36.5005C59.4954 36.5005 63.0105 40.0307 63.0105 44.3893ZM55.1556 48.3337C56.1972 48.3337 57.1962 47.9181 57.9327 47.1784C58.6693 46.4387 59.083 45.4354 59.083 44.3893C59.083 43.3432 58.6693 42.3399 57.9327 41.6002C57.1962 40.8605 56.1972 40.4449 55.1556 40.4449C54.1139 40.4449 53.1149 40.8605 52.3784 41.6002C51.6419 42.3399 51.2281 43.3432 51.2281 44.3893C51.2281 45.4354 51.6419 46.4387 52.3784 47.1784C53.1149 47.9181 54.1139 48.3337 55.1556 48.3337ZM38.4637 64.6378C38.4637 59.0407 49.5844 56.2224 55.1556 56.2224C60.7267 56.2224 71.8474 59.0427 71.8474 64.6378V72H38.4637V64.6378ZM42.3912 68.0556V64.6378C42.3912 64.6181 42.3912 64.5786 42.4423 64.48C42.5051 64.3577 42.6485 64.1428 42.9568 63.8548C43.6048 63.2533 44.6888 62.5966 46.1852 61.9911C49.1897 60.7782 52.8619 60.1668 55.1556 60.1668C57.4472 60.1668 61.1234 60.7782 64.1259 61.9911C65.6223 62.5966 66.7063 63.2533 67.3543 63.8548C67.6626 64.1428 67.806 64.3577 67.8688 64.4781C67.9199 64.5767 67.9199 64.62 67.9199 64.6358V68.0556H42.3912ZM55.3519 31.5818C57.6495 32.3076 59.2794 32.5561 59.2794 32.5561V26.8032H59.9824C61.5533 26.8235 63.1125 26.5303 64.5696 25.9406C66.0267 25.351 67.3527 24.4765 68.4707 23.3681C69.5887 22.2597 70.4763 20.9393 71.0822 19.4836C71.688 18.028 72 16.4659 72 14.8882C72 13.3105 71.688 11.7484 71.0822 10.2928C70.4763 8.83707 69.5887 7.51671 68.4707 6.40828C67.3527 5.29986 66.0267 4.42544 64.5696 3.83576C63.1125 3.24608 61.5533 2.95288 59.9824 2.97318H52.2924C49.1456 2.97318 46.1278 4.22861 43.9026 6.4633C41.6775 8.69798 40.4275 11.7289 40.4275 14.8892C40.4275 25.3339 49.8279 29.8384 55.3519 31.5818ZM59.9824 22.8588H55.3519V27.4205C54.105 26.9733 52.8932 26.4327 51.7269 25.8033C47.6344 23.5728 44.355 20.2259 44.355 14.8872C44.3555 12.7733 45.192 10.7462 46.6805 9.25171C48.169 7.75716 50.1876 6.91757 52.2924 6.91757H59.9824C61.0352 6.90094 62.0807 7.09482 63.0581 7.48791C64.0355 7.88101 64.9253 8.46547 65.6756 9.20726C66.4259 9.94905 67.0218 10.8333 67.4285 11.8087C67.8353 12.784 68.0447 13.8308 68.0447 14.8882C68.0447 15.9456 67.8353 16.9924 67.4285 17.9677C67.0218 18.943 66.4259 19.8273 65.6756 20.5691C64.9253 21.3109 64.0355 21.8954 63.0581 22.2885C62.0807 22.6816 61.0352 22.8755 59.9824 22.8588Z" stroke="#093A3A" stroke-width="2" mask="url(#path-1-outside-1_1619_155)"/>
</svg>
