<svg width="111" height="39" viewBox="0 0 111 39" fill="none" xmlns="http://www.w3.org/2000/svg">
<g clip-path="url(#clip0_1416_412)">
<g filter="url(#filter0_d_1416_412)">
<path fill-rule="evenodd" clip-rule="evenodd" d="M32.8125 19.5C32.8125 23.5611 31.1992 27.4559 28.3276 30.3276C25.4559 33.1992 21.5611 34.8125 17.5 34.8125C13.4389 34.8125 9.54408 33.1992 6.67243 30.3276C3.80078 27.4559 2.1875 23.5611 2.1875 19.5C2.1875 15.4389 3.80078 11.5441 6.67243 8.67243C9.54408 5.80078 13.4389 4.1875 17.5 4.1875C21.5611 4.1875 25.4559 5.80078 28.3276 8.67243C31.1992 11.5441 32.8125 15.4389 32.8125 19.5ZM0 19.5C0 24.1413 1.84374 28.5925 5.12563 31.8744C8.40752 35.1563 12.8587 37 17.5 37C22.1413 37 26.5925 35.1563 29.8744 31.8744C33.1563 28.5925 35 24.1413 35 19.5C35 14.8587 33.1563 10.4075 29.8744 7.12563C26.5925 3.84374 22.1413 2 17.5 2C12.8587 2 8.40752 3.84374 5.12563 7.12563C1.84374 10.4075 0 14.8587 0 19.5ZM25.1562 18.4062C25.4463 18.4062 25.7245 18.5215 25.9296 18.7266C26.1348 18.9317 26.25 19.2099 26.25 19.5C26.25 19.7901 26.1348 20.0683 25.9296 20.2734C25.7245 20.4785 25.4463 20.5938 25.1562 20.5938H12.4841L17.1806 25.2881C17.2823 25.3898 17.363 25.5105 17.418 25.6434C17.4731 25.7763 17.5014 25.9187 17.5014 26.0625C17.5014 26.2063 17.4731 26.3487 17.418 26.4816C17.363 26.6145 17.2823 26.7352 17.1806 26.8369C17.0789 26.9386 16.9582 27.0192 16.8253 27.0743C16.6925 27.1293 16.5501 27.1576 16.4062 27.1576C16.2624 27.1576 16.12 27.1293 15.9872 27.0743C15.8543 27.0192 15.7336 26.9386 15.6319 26.8369L9.06937 20.2744C8.96752 20.1728 8.88671 20.0521 8.83157 19.9192C8.77643 19.7863 8.74804 19.6439 8.74804 19.5C8.74804 19.3561 8.77643 19.2137 8.83157 19.0808C8.88671 18.9479 8.96752 18.8272 9.06937 18.7256L15.6319 12.1631C15.7336 12.0614 15.8543 11.9808 15.9872 11.9257C16.12 11.8707 16.2624 11.8424 16.4062 11.8424C16.5501 11.8424 16.6925 11.8707 16.8253 11.9257C16.9582 11.9808 17.0789 12.0614 17.1806 12.1631C17.2823 12.2648 17.363 12.3855 17.418 12.5184C17.4731 12.6513 17.5014 12.7937 17.5014 12.9375C17.5014 13.0813 17.4731 13.2237 17.418 13.3566C17.363 13.4895 17.2823 13.6102 17.1806 13.7119L12.4841 18.4062H25.1562Z" fill="#041B1B"/>
<path d="M12.3427 20.7352L12.0011 20.3937H12.4841H25.1562C25.3933 20.3937 25.6206 20.2996 25.7882 20.132C25.9558 19.9644 26.05 19.737 26.05 19.5C26.05 19.263 25.9558 19.0356 25.7882 18.868C25.6206 18.7004 25.3933 18.6063 25.1562 18.6063H12.4841H12.0011L12.3427 18.2648L17.0392 13.5705C17.1223 13.4873 17.1883 13.3887 17.2332 13.2801C17.2782 13.1714 17.3014 13.055 17.3014 12.9375C17.3014 12.82 17.2782 12.7036 17.2332 12.5949C17.1883 12.4863 17.1223 12.3877 17.0392 12.3045C16.9561 12.2214 16.8574 12.1555 16.7488 12.1105C16.6402 12.0655 16.5238 12.0424 16.4062 12.0424C16.2887 12.0424 16.1723 12.0655 16.0637 12.1105C15.9551 12.1555 15.8564 12.2214 15.7733 12.3045L9.2108 18.867L9.21062 18.8672C9.12739 18.9502 9.06135 19.0489 9.0163 19.1575C8.97124 19.266 8.94805 19.3824 8.94805 19.5C8.94805 19.6176 8.97124 19.734 9.01629 19.8425L8.83157 19.9192L9.0163 19.8425C9.06135 19.9511 9.12739 20.0498 9.21062 20.1328L9.2108 20.133L15.7733 26.6955C15.8564 26.7786 15.9551 26.8445 16.0637 26.8895C16.1723 26.9345 16.2887 26.9576 16.4062 26.9576C16.5238 26.9576 16.6402 26.9345 16.7488 26.8895C16.8574 26.8445 16.9561 26.7786 17.0392 26.6955C17.1223 26.6123 17.1883 26.5137 17.2332 26.4051C17.2782 26.2964 17.3014 26.18 17.3014 26.0625C17.3014 25.945 17.2782 25.8286 17.2332 25.7199C17.1883 25.6113 17.1223 25.5127 17.0392 25.4295L12.3427 20.7352ZM33.0125 19.5C33.0125 23.6142 31.3782 27.5598 28.469 30.469C25.5598 33.3782 21.6142 35.0125 17.5 35.0125C13.3858 35.0125 9.44016 33.3782 6.53101 30.469C3.62185 27.5598 1.9875 23.6142 1.9875 19.5C1.9875 15.3858 3.62185 11.4402 6.53101 8.53101C9.44016 5.62185 13.3858 3.9875 17.5 3.9875C21.6142 3.9875 25.5598 5.62185 28.469 8.53101C31.3782 11.4402 33.0125 15.3858 33.0125 19.5ZM0.200001 19.5C0.200001 24.0882 2.02267 28.4886 5.26705 31.7329C8.51143 34.9773 12.9118 36.8 17.5 36.8C22.0882 36.8 26.4886 34.9773 29.7329 31.7329C32.9773 28.4886 34.8 24.0882 34.8 19.5C34.8 14.9118 32.9773 10.5114 29.7329 7.26705C26.4886 4.02267 22.0882 2.2 17.5 2.2C12.9118 2.2 8.51143 4.02267 5.26705 7.26705C2.02267 10.5114 0.200001 14.9118 0.200001 19.5Z" stroke="white" stroke-width="0.4"/>
</g>
</g>
<path d="M55.005 17.275C55.005 18.55 54.27 19.465 52.965 19.465C52.725 19.465 52.5 19.42 52.29 19.33L52.425 15.52H53.235C54.39 15.52 55.005 16.105 55.005 17.275ZM58.38 24.34C57.27 24.055 56.91 23.71 56.4 22.705L54.975 19.885C56.265 19.6 57.465 18.49 57.465 17.11C57.465 14.785 55.23 14.5 53.415 14.5H48.57V15.16L50.205 15.595L50.01 23.89L48.39 24.34V25H53.595V24.34L52.14 23.89L52.275 20.17C52.41 20.215 52.56 20.245 52.71 20.245H52.815L54.735 24.145C55.05 24.775 55.23 25.075 55.98 25.075C56.79 25.075 57.585 25.015 58.38 25V24.34ZM67.1262 21.955L65.7612 23.995H62.7162L62.8512 20.08H64.3212C64.6812 20.08 64.7862 20.2 64.8612 20.53C64.9362 20.845 64.9212 21.175 64.9512 21.49H65.7762L65.9412 18.04H65.1462C65.0262 18.505 65.0112 19.165 64.3662 19.165H62.8812L63.0012 15.52H65.1012C65.4762 15.52 65.6262 15.61 65.7162 15.97C65.8512 16.405 65.9112 16.855 66.0162 17.29H66.8112L67.0362 14.5H59.1462V15.16L60.7812 15.595L60.5862 23.89L58.9662 24.34V25H67.1262L67.8912 21.955H67.1262ZM68.9149 14.5L68.2099 17.62H69.0649L70.2199 15.52H71.9449L71.7199 23.89L69.9349 24.355V25H75.6499V24.34L73.8649 23.89L74.1499 15.52H75.5599C75.9799 15.52 76.1149 15.565 76.2499 15.97C76.4299 16.51 76.5199 17.065 76.6399 17.62H77.4499L77.4799 14.5H68.9149ZM85.7027 19.75C85.7027 21.445 85.1027 24.16 82.9577 24.16C80.7977 24.16 80.2877 21.43 80.2877 19.75C80.2877 18.07 80.9027 15.34 83.0177 15.34C85.1777 15.34 85.7027 18.07 85.7027 19.75ZM88.2077 19.135C88.2077 16.345 86.4677 14.275 83.5877 14.275C80.2277 14.275 77.7677 17.08 77.7677 20.365C77.7677 23.155 79.5527 25.225 82.4327 25.225C85.8077 25.225 88.2077 22.42 88.2077 19.135ZM99.4704 14.5H95.2404V15.16C97.1004 15.655 97.2504 16.915 97.2504 18.595C97.2504 19.66 97.1754 20.74 96.8754 21.775C96.5004 23.11 95.7504 24.025 94.2654 24.025C92.9604 24.025 92.3304 23.245 92.3454 22L92.3604 21.79L92.5704 15.61L93.9204 15.16V14.5H88.7154V15.16L90.3504 15.595L90.2004 21.805V21.985C90.1704 24.19 91.6404 25.21 93.7404 25.21C98.0604 25.21 98.3604 21.19 98.3604 17.845C98.3604 17.095 98.3304 16.345 98.2854 15.595L99.4704 15.16V14.5ZM106.743 17.275C106.743 18.55 106.008 19.465 104.703 19.465C104.463 19.465 104.238 19.42 104.028 19.33L104.163 15.52H104.973C106.128 15.52 106.743 16.105 106.743 17.275ZM110.118 24.34C109.008 24.055 108.648 23.71 108.138 22.705L106.713 19.885C108.003 19.6 109.203 18.49 109.203 17.11C109.203 14.785 106.968 14.5 105.153 14.5H100.308V15.16L101.943 15.595L101.748 23.89L100.128 24.34V25H105.333V24.34L103.878 23.89L104.013 20.17C104.148 20.215 104.298 20.245 104.448 20.245H104.553L106.473 24.145C106.788 24.775 106.968 25.075 107.718 25.075C108.528 25.075 109.323 25.015 110.118 25V24.34Z" fill="#041B1B"/>
<defs>
<filter id="filter0_d_1416_412" x="-4" y="2" width="43" height="43" filterUnits="userSpaceOnUse" color-interpolation-filters="sRGB">
<feFlood flood-opacity="0" result="BackgroundImageFix"/>
<feColorMatrix in="SourceAlpha" type="matrix" values="0 0 0 0 0 0 0 0 0 0 0 0 0 0 0 0 0 0 127 0" result="hardAlpha"/>
<feOffset dy="4"/>
<feGaussianBlur stdDeviation="2"/>
<feComposite in2="hardAlpha" operator="out"/>
<feColorMatrix type="matrix" values="0 0 0 0 0 0 0 0 0 0 0 0 0 0 0 0 0 0 0.25 0"/>
<feBlend mode="normal" in2="BackgroundImageFix" result="effect1_dropShadow_1416_412"/>
<feBlend mode="normal" in="SourceGraphic" in2="effect1_dropShadow_1416_412" result="shape"/>
</filter>
<clipPath id="clip0_1416_412">
<rect width="35" height="35" fill="white" transform="translate(0 2)"/>
</clipPath>
</defs>
</svg>
