<svg width="30" height="30" viewBox="0 0 30 30" fill="none" xmlns="http://www.w3.org/2000/svg">
<g clip-path="url(#clip0_672_167)">
<path d="M19.5918 30H10.5859C10.4028 29.9844 10.2197 29.9591 10.0366 29.9532C8.83852 29.9221 7.64242 29.8753 6.47164 29.587C4.0093 28.9812 2.17618 27.5786 1.08528 25.2662C0.411249 23.8364 0.202807 22.2993 0.185275 20.739C0.15021 17.4896 0.115145 14.2403 0.14047 10.9909C0.152158 9.62922 0.233976 8.25584 0.432678 6.91169C0.744366 4.81558 1.75346 3.07403 3.46774 1.78831C4.93463 0.685714 6.63333 0.247403 8.43138 0.118831C9.14826 0.0681818 9.86709 0.038961 10.5859 0H19.5333C20.2327 0.038961 20.9301 0.075974 21.6294 0.116883C22.8528 0.188961 24.0489 0.399351 25.171 0.905844C27.9236 2.14675 29.3729 4.35584 29.8249 7.28571C29.9048 7.8039 29.9437 8.32792 30.0022 8.84805V20.9182C29.9866 21.0234 29.9651 21.1266 29.9535 21.2318C29.8911 21.8221 29.86 22.4182 29.7626 23.0026C29.445 24.8844 28.6424 26.5169 27.1989 27.8006C25.6346 29.1896 23.7528 29.7448 21.7151 29.8831C21.008 29.9318 20.3009 29.963 19.5918 30.0019V30ZM15.084 27.3487V27.3019C15.8749 27.3019 16.6638 27.3253 17.4528 27.2981C19.1554 27.2357 20.8716 27.2571 22.5548 27.0448C24.8574 26.7526 26.4139 25.4201 26.9749 23.1253C27.2028 22.1981 27.2768 21.2143 27.2963 20.2558C27.3509 17.4838 27.3684 14.7097 27.347 11.9377C27.3353 10.4864 27.2885 9.02532 27.119 7.58571C26.8346 5.16623 25.321 3.53377 22.9288 3.05455C21.9061 2.85 20.8405 2.78961 19.7944 2.77403C17.0087 2.73312 14.219 2.72532 11.4333 2.75844C10.1125 2.77403 8.77813 2.82078 7.47294 3.01169C5.18593 3.34481 3.62943 4.83312 3.16969 7.08896C2.97099 8.06688 2.90086 9.08182 2.87943 10.0812C2.82878 12.5026 2.8093 14.924 2.83657 17.3455C2.85411 19.0227 2.89696 20.7058 3.0606 22.3734C3.22813 24.0896 4.04242 25.4864 5.57748 26.3766C6.51644 26.9201 7.5567 27.1481 8.62619 27.1851C10.7788 27.261 12.9314 27.2981 15.084 27.3526V27.3487Z" fill="white"/>
<path d="M7.39065 14.9923C7.40233 10.7338 10.864 7.27799 15.101 7.29942C19.3634 7.32084 22.8017 10.7845 22.7725 15.0273C22.7432 19.2897 19.3108 22.7182 15.0816 22.7105C10.8329 22.7027 7.38091 19.239 7.39065 14.9942V14.9923ZM15.064 19.9949C17.8264 20.0046 20.051 17.7936 20.0666 15.0293C20.0803 12.2631 17.8751 10.0286 15.1166 10.0111C12.3445 9.99357 10.1082 12.2143 10.1004 14.9923C10.0926 17.7566 12.3056 19.9871 15.064 19.9968V19.9949Z" fill="white"/>
<path d="M23.0979 5.19927C24.1031 5.20901 24.8843 6.01356 24.8687 7.02265C24.8531 8.01226 24.0544 8.79537 23.0629 8.78758C22.0694 8.78174 21.2746 7.96161 21.2863 6.95836C21.2979 5.9746 22.1064 5.18953 23.096 5.19732L23.0979 5.19927Z" fill="white"/>
</g>
<defs>
<clipPath id="clip0_672_167">
<rect width="30" height="30" fill="white"/>
</clipPath>
</defs>
</svg>
