<svg width="141" height="104" viewBox="0 0 141 104" fill="none" xmlns="http://www.w3.org/2000/svg">
<path d="M6.27446 92.7433C6.84703 93.3087 7.88417 93.5917 9.39058 93.5917C11.0191 93.5917 12.4082 92.953 13.5626 91.6755C13.7034 91.5027 13.9991 91.126 14.4355 90.5344L17.852 91.8954C17.0167 93.1831 16.4112 94.0367 16.0359 94.4555C14.2009 96.5024 11.9811 97.5281 9.3859 97.5281C6.79069 97.5281 4.58971 96.5024 2.75476 94.4555C0.91982 92.4085 0 89.9326 0 87.0378C0 84.1424 0.91982 81.6716 2.75476 79.6195C4.58971 77.5732 6.80012 76.5469 9.3859 76.5469C11.6057 76.5469 13.5533 77.2953 15.2286 78.7927C15.5055 79.049 15.773 79.3263 16.0359 79.6195C16.1438 79.74 16.4582 80.1276 16.9744 80.7765L15.2568 82.7081L6.26509 92.7381L6.27446 92.7433ZM11.9811 80.9652C11.5963 80.635 10.7328 80.468 9.39058 80.468C7.77155 80.468 6.39182 81.1118 5.24206 82.3887C4.09226 83.6713 3.51972 85.221 3.51972 87.0378C3.51972 88.5244 3.66989 89.4876 3.96555 89.9275L11.9858 80.9652H11.9811Z" fill="white"/>
<path d="M25.2481 92.9626C25.6564 93.4025 26.1397 93.6275 26.6982 93.6275C27.2566 93.6275 27.74 93.4076 28.1436 92.9626C28.5472 92.5177 28.7443 91.9733 28.7443 91.3243C28.7443 90.6753 28.5472 90.1673 28.1483 89.7223C27.8714 89.4132 27.2848 88.9421 26.3838 88.3039C25.1542 87.5549 24.2766 86.8957 23.7604 86.3144C22.8594 85.3091 22.4088 84.0998 22.4088 82.6865C22.4088 81.2732 22.8594 80.048 23.7604 79.0325C24.6614 78.017 25.7502 77.5146 27.0267 77.5146C28.3032 77.5146 29.3638 77.9909 30.2132 78.949C30.8186 79.6241 31.2034 80.3782 31.3677 81.2101L28.0498 82.2785C27.9747 81.9693 27.8949 81.7705 27.8198 81.671C27.6227 81.4511 27.3599 81.3414 27.0267 81.3414C26.6935 81.3414 26.4119 81.4721 26.1773 81.7392C25.9426 82.0006 25.8206 82.32 25.8206 82.6865C25.8206 83.0531 25.9379 83.3673 26.1679 83.6236C26.3791 83.8435 26.8483 84.2203 27.5852 84.7437C28.9508 85.5762 29.941 86.3405 30.5558 87.0264C31.6211 88.2306 32.1561 89.6592 32.1561 91.3135C32.1561 92.9677 31.6258 94.4492 30.5652 95.6483C29.5046 96.8468 28.214 97.4435 26.6982 97.4435C25.1824 97.4435 23.9059 96.8417 22.8359 95.6375C22.0991 94.8158 21.6157 93.79 21.3857 92.5648L24.7835 91.7533C24.882 92.3188 25.0369 92.7166 25.2434 92.9524L25.2481 92.9626Z" fill="white"/>
<path d="M49.8164 90.5344L53.2327 91.8954C52.3974 93.1831 51.7923 94.0367 51.4169 94.4555C49.5818 96.5024 47.362 97.5281 44.7668 97.5281C42.1716 97.5281 39.9706 96.5024 38.1356 94.4555C36.3007 92.4085 35.3809 89.9326 35.3809 87.0378C35.3809 84.1424 36.3007 81.6716 38.1356 79.6195C39.9706 77.5732 42.181 76.5469 44.7668 76.5469C47.3526 76.5469 49.5771 77.5732 51.4169 79.6195C51.7923 80.0383 52.3974 80.876 53.2327 82.1427L49.8164 83.5406C49.3753 82.9388 49.0796 82.5513 48.9248 82.3836C47.7797 81.1067 46.3953 80.468 44.7668 80.468C43.1384 80.468 41.768 81.1118 40.6182 82.3887C39.4685 83.6713 38.8959 85.221 38.8959 87.0378C38.8959 88.854 39.4685 90.3827 40.6182 91.6652C41.768 92.9478 43.1524 93.5866 44.7668 93.5866C46.3812 93.5866 47.7844 92.9478 48.9388 91.6704C49.0796 91.4976 49.3753 91.1208 49.8117 90.5293L49.8164 90.5344Z" fill="white"/>
<path d="M71.9055 79.4206V78.0965H75.336V97.0519H71.9055V94.6753C70.2537 96.5756 68.3436 97.5281 66.1661 97.5281C63.571 97.5281 61.3558 96.5075 59.5257 94.4656C57.6956 92.4244 56.7803 89.9535 56.7803 87.0588C56.7803 84.1634 57.6956 81.6925 59.5257 79.6513C61.3558 77.6095 63.571 76.5889 66.1661 76.5889C68.3436 76.5889 70.2583 77.5362 71.9055 79.4206ZM71.9055 88.4561V85.6608C71.7084 84.4725 71.1782 83.3888 70.3194 82.4205C69.1652 81.143 67.7808 80.5043 66.1615 80.5043C64.5423 80.5043 63.1441 81.143 61.994 82.4205C60.8444 83.698 60.2719 85.242 60.2719 87.0588C60.2719 88.875 60.8444 90.4036 61.994 91.6862C63.1441 92.9688 64.5331 93.6075 66.1615 93.6075C67.7899 93.6075 69.1652 92.9688 70.3194 91.6913C71.1782 90.723 71.7038 89.6444 71.9055 88.451V88.4561Z" fill="white"/>
<path d="M84.051 94.6751V103.396H80.6348V78.0912H84.051V79.8028C85.7028 77.6462 87.6226 76.5625 89.8092 76.5625C92.4044 76.5625 94.6196 77.5831 96.4502 79.6249C98.2803 81.6662 99.1951 84.137 99.1951 87.0318C99.1951 89.9272 98.2803 92.398 96.4502 94.4501C94.6196 96.4964 92.4044 97.5227 89.8092 97.5227C87.6226 97.5227 85.7028 96.5697 84.051 94.67V94.6751ZM84.051 85.5662V88.5292C84.2624 89.6965 84.7926 90.7489 85.6514 91.6962C86.7964 92.9737 88.1808 93.6124 89.8092 93.6124C91.4376 93.6124 92.8272 92.9737 93.9768 91.6911C95.1264 90.4085 95.6989 88.8588 95.6989 87.0426C95.6989 85.2258 95.1264 83.6921 93.9768 82.4044C92.8272 81.1166 91.4376 80.4728 89.8092 80.4728C88.1808 80.4728 86.7964 81.1166 85.6514 82.4044C84.7926 83.3522 84.2624 84.4041 84.051 85.5714V85.5662Z" fill="white"/>
<path d="M108.6 92.7433C109.172 93.3087 110.209 93.5917 111.716 93.5917C113.344 93.5917 114.734 92.953 115.888 91.6755C116.029 91.5027 116.324 91.126 116.761 90.5344L120.177 91.8954C119.342 93.1831 118.737 94.0367 118.361 94.4555C116.526 96.5024 114.306 97.5281 111.711 97.5281C109.116 97.5281 106.915 96.5024 105.08 94.4555C103.245 92.4085 102.325 89.9326 102.325 87.0378C102.325 84.1424 103.245 81.6716 105.08 79.6195C106.915 77.5732 109.125 76.5469 111.711 76.5469C113.931 76.5469 115.879 77.2953 117.554 78.7927C117.831 79.049 118.098 79.3263 118.361 79.6195C118.469 79.74 118.783 80.1276 119.299 80.7765L117.582 82.7081L108.59 92.7381L108.6 92.7433ZM114.306 80.9652C113.922 80.635 113.058 80.468 111.716 80.468C110.097 80.468 108.717 81.1118 107.567 82.3887C106.417 83.6713 105.845 85.221 105.845 87.0378C105.845 88.5244 105.995 89.4876 106.291 89.9275L114.311 80.9652H114.306Z" fill="white"/>
<path d="M129.423 92.7433C129.996 93.3087 131.033 93.5917 132.539 93.5917C134.168 93.5917 135.557 92.953 136.711 91.6755C136.852 91.5027 137.148 91.126 137.584 90.5344L141.001 91.8954C140.165 93.1831 139.56 94.0367 139.184 94.4555C137.35 96.5024 135.13 97.5281 132.535 97.5281C129.939 97.5281 127.738 96.5024 125.904 94.4555C124.068 92.4085 123.148 89.9326 123.148 87.0378C123.148 84.1424 124.068 81.6716 125.904 79.6195C127.738 77.5732 129.949 76.5469 132.535 76.5469C134.755 76.5469 136.702 77.2953 138.377 78.7927C138.654 79.049 138.922 79.3263 139.184 79.6195C139.292 79.74 139.607 80.1276 140.123 80.7765L138.406 82.7081L129.414 92.7381L129.423 92.7433ZM135.13 80.9652C134.745 80.635 133.882 80.468 132.539 80.468C130.92 80.468 129.54 81.1118 128.391 82.3887C127.241 83.6713 126.669 85.221 126.669 87.0378C126.669 88.5244 126.818 89.4876 127.114 89.9275L135.135 80.9652H135.13Z" fill="white"/>
<path d="M60.6485 54.0869C60.0327 54.0869 59.4449 53.7007 59.1591 53.0385C58.769 52.1251 59.1148 51.0215 59.9339 50.5862C61.9952 49.4888 64.1055 48.0113 64.9958 47.0978C64.4462 46.779 63.7265 46.5215 63.0175 46.2701C60.7641 45.4731 57.3509 44.2715 57.4278 39.4894C57.4935 35.1918 61.5276 32.5187 64.7763 30.3668C66.1994 29.4226 67.975 28.2455 68.3377 27.5098C68.6672 26.8354 68.8654 26.1488 68.9036 25.5296L55.4546 5.10783L28.5893 52.7688C28.1057 53.6271 27.0888 53.8907 26.3139 53.3451C25.5444 52.8056 25.3081 51.6714 25.7973 50.8069L53.9541 0.85918C54.2454 0.34419 54.7456 0.0192571 55.2896 0.000864593C55.8392 -0.0175279 56.3562 0.258359 56.6801 0.748826L71.8772 23.8313C72.0585 24.1072 72.1685 24.4383 72.1904 24.7816C72.2892 26.2163 71.9429 27.8103 71.2232 29.2816C70.4316 30.8941 68.5903 32.1141 66.4576 33.5303C63.9185 35.2162 60.7585 37.313 60.7254 39.5569C60.6979 41.4268 61.5551 41.8989 64.0122 42.7633C65.4135 43.2599 66.8646 43.7688 67.9363 44.9704C68.5027 45.5957 68.7441 46.4602 68.6122 47.3246C68.2389 49.7708 64.4574 52.2538 61.3575 53.903C61.1268 54.0256 60.8848 54.0808 60.6485 54.0808V54.0869Z" fill="white"/>
<path d="M74.7174 54.8776C74.0853 54.8776 73.4807 54.4668 73.2062 53.7802C72.8379 52.8483 73.2118 51.7631 74.0471 51.3524C76.9214 49.93 77.7567 48.7897 77.7567 46.2638C77.7567 45.1848 75.8003 44.6146 73.4313 44.0322C70.854 43.3946 67.6384 42.6037 67.8692 39.3728C68.078 36.4545 69.8587 35.2161 71.4362 34.1248C72.5629 33.34 73.7283 32.5369 74.8218 31.0165C76.383 28.84 76.031 27.712 75.157 25.5723C74.8937 24.9286 74.9869 24.1806 75.3882 23.635L86.7764 8.29567C87.0947 7.86651 87.5786 7.61516 88.0788 7.62738C88.5789 7.63965 89.0516 7.90328 89.3593 8.35085L119.193 51.8919C119.748 52.7011 119.605 53.8538 118.885 54.473C118.165 55.0922 117.126 54.9389 116.571 54.1296L87.9962 12.4278L78.5758 25.1125C79.3398 27.197 79.8512 29.8945 77.3941 33.3155C75.9541 35.3264 74.4154 36.3932 73.1787 37.2515C71.7168 38.2631 71.2879 38.6432 71.1779 39.4647C71.6781 39.8326 73.2006 40.2066 74.1459 40.4395C77.0645 41.1568 81.0599 42.1439 81.0599 46.2638C81.0599 51.2298 78.3338 53.2591 75.3882 54.712C75.1738 54.8163 74.9431 54.8715 74.723 54.8715L74.7174 54.8776Z" fill="white"/>
</svg>
