<svg width="254" height="167" viewBox="0 0 254 167" fill="none" xmlns="http://www.w3.org/2000/svg">
<path d="M11.303 149.749C12.3344 150.662 14.2027 151.119 16.9164 151.119C19.8499 151.119 22.3523 150.088 24.432 148.025C24.6856 147.746 25.2182 147.138 26.0044 146.182L32.1589 148.38C30.6541 150.459 29.5636 151.837 28.8873 152.513C25.5817 155.818 21.583 157.475 16.908 157.475C12.2329 157.475 8.26799 155.818 4.96249 152.513C1.65698 149.208 0 145.21 0 140.536C0 135.862 1.65698 131.873 4.96249 128.559C8.26799 125.254 12.2498 123.598 16.908 123.598C20.9067 123.598 24.4151 124.806 27.4332 127.224C27.932 127.638 28.4138 128.086 28.8873 128.559C29.0817 128.754 29.6481 129.379 30.578 130.427L27.4839 133.546L11.2861 149.741L11.303 149.749ZM21.583 130.731C20.8898 130.199 19.3343 129.929 16.9164 129.929C13.9998 129.929 11.5143 130.968 9.4431 133.031C7.37187 135.101 6.34049 137.603 6.34049 140.536C6.34049 142.937 6.61101 144.492 7.14361 145.202L21.5915 130.731H21.583Z" fill="#1CC9C9"/>
<path d="M45.4811 150.103C46.2166 150.813 47.0873 151.177 48.0933 151.177C49.0994 151.177 49.9701 150.822 50.6972 150.103C51.4242 149.385 51.7793 148.506 51.7793 147.458C51.7793 146.41 51.4242 145.59 50.7056 144.871C50.2068 144.372 49.1501 143.612 47.5269 142.581C45.312 141.372 43.7311 140.307 42.8012 139.369C41.178 137.746 40.3664 135.793 40.3664 133.511C40.3664 131.229 41.178 129.251 42.8012 127.611C44.4243 125.972 46.3856 125.16 48.6851 125.16C50.9846 125.16 52.8952 125.929 54.4254 127.476C55.5159 128.566 56.2092 129.784 56.5051 131.128L50.5281 132.852C50.3928 132.353 50.2491 132.032 50.1138 131.871C49.7588 131.516 49.2854 131.339 48.6851 131.339C48.0849 131.339 47.5777 131.55 47.155 131.981C46.7323 132.404 46.5124 132.919 46.5124 133.511C46.5124 134.103 46.7238 134.61 47.138 135.024C47.5185 135.379 48.3639 135.988 49.6911 136.833C52.1513 138.177 53.935 139.411 55.0425 140.518C56.9616 142.462 57.9253 144.77 57.9253 147.441C57.9253 150.112 56.97 152.504 55.0594 154.439C53.1488 156.375 50.824 157.338 48.0933 157.338C45.3627 157.338 43.0632 156.366 41.1357 154.422C39.8084 153.095 38.9377 151.439 38.5234 149.461L44.6441 148.151C44.8217 149.064 45.1006 149.706 45.4726 150.086L45.4811 150.103Z" fill="#1CC9C9"/>
<path d="M89.7388 146.182L95.8933 148.38C94.3885 150.459 93.298 151.837 92.6216 152.513C89.3161 155.818 85.3174 157.475 80.6423 157.475C75.9673 157.475 72.0024 155.818 68.6969 152.513C65.3914 149.208 63.7344 145.21 63.7344 140.536C63.7344 135.862 65.3914 131.873 68.6969 128.559C72.0024 125.254 75.9842 123.598 80.6423 123.598C85.3005 123.598 89.3077 125.254 92.6216 128.559C93.298 129.235 94.3885 130.588 95.8933 132.633L89.7388 134.89C88.9442 133.918 88.4115 133.293 88.1326 133.022C86.0698 130.96 83.5759 129.929 80.6423 129.929C77.7088 129.929 75.2402 130.968 73.169 133.031C71.0978 135.101 70.0664 137.603 70.0664 140.536C70.0664 143.469 71.0978 145.937 73.169 148.008C75.2402 150.079 77.7342 151.11 80.6423 151.11C83.5505 151.11 86.0782 150.079 88.1579 148.017C88.4115 147.738 88.9441 147.129 89.7304 146.174L89.7388 146.182Z" fill="#1CC9C9"/>
<path d="M129.528 128.237V126.098H135.708V156.705H129.528V152.867C126.553 155.935 123.112 157.474 119.189 157.474C114.514 157.474 110.524 155.825 107.227 152.529C103.93 149.233 102.281 145.243 102.281 140.569C102.281 135.895 103.93 131.905 107.227 128.609C110.524 125.312 114.514 123.664 119.189 123.664C123.112 123.664 126.561 125.194 129.528 128.237ZM129.528 142.826V138.312C129.173 136.393 128.218 134.644 126.671 133.08C124.591 131.018 122.097 129.986 119.181 129.986C116.264 129.986 113.745 131.018 111.674 133.08C109.602 135.142 108.571 137.636 108.571 140.569C108.571 143.502 109.602 145.97 111.674 148.041C113.745 150.112 116.247 151.143 119.181 151.143C122.114 151.143 124.591 150.112 126.671 148.049C128.218 146.486 129.165 144.744 129.528 142.817V142.826Z" fill="#1CC9C9"/>
<path d="M151.412 152.87V166.952H145.258V126.093H151.412V128.857C154.388 125.375 157.846 123.625 161.785 123.625C166.46 123.625 170.451 125.273 173.748 128.57C177.045 131.866 178.693 135.856 178.693 140.53C178.693 145.204 177.045 149.194 173.748 152.507C170.451 155.812 166.46 157.468 161.785 157.468C157.846 157.468 154.388 155.93 151.412 152.862V152.87ZM151.412 138.163V142.947C151.793 144.832 152.748 146.531 154.295 148.061C156.358 150.123 158.852 151.155 161.785 151.155C164.719 151.155 167.221 150.123 169.292 148.052C171.364 145.982 172.395 143.48 172.395 140.547C172.395 137.614 171.364 135.137 169.292 133.058C167.221 130.979 164.719 129.939 161.785 129.939C158.852 129.939 156.358 130.979 154.295 133.058C152.748 134.588 151.793 136.287 151.412 138.172V138.163Z" fill="#1CC9C9"/>
<path d="M195.631 149.749C196.662 150.662 198.531 151.119 201.245 151.119C204.178 151.119 206.68 150.088 208.76 148.025C209.014 147.746 209.546 147.138 210.333 146.182L216.487 148.38C214.982 150.459 213.892 151.837 213.215 152.513C209.91 155.818 205.911 157.475 201.236 157.475C196.561 157.475 192.596 155.818 189.291 152.513C185.985 149.208 184.328 145.21 184.328 140.536C184.328 135.862 185.985 131.873 189.291 128.559C192.596 125.254 196.578 123.598 201.236 123.598C205.235 123.598 208.743 124.806 211.761 127.224C212.26 127.638 212.742 128.086 213.215 128.559C213.41 128.754 213.976 129.379 214.906 130.427L211.812 133.546L195.614 149.741L195.631 149.749ZM205.911 130.731C205.218 130.199 203.662 129.929 201.245 129.929C198.328 129.929 195.842 130.968 193.771 133.031C191.7 135.101 190.669 137.603 190.669 140.536C190.669 142.937 190.939 144.492 191.472 145.202L205.92 130.731H205.911Z" fill="#1CC9C9"/>
<path d="M233.147 149.749C234.178 150.662 236.046 151.119 238.76 151.119C241.694 151.119 244.196 150.088 246.276 148.025C246.529 147.746 247.062 147.138 247.848 146.182L254.003 148.38C252.498 150.459 251.407 151.837 250.731 152.513C247.426 155.818 243.427 157.475 238.752 157.475C234.077 157.475 230.112 155.818 226.806 152.513C223.501 149.208 221.844 145.21 221.844 140.536C221.844 135.862 223.501 131.873 226.806 128.559C230.112 125.254 234.094 123.598 238.752 123.598C242.75 123.598 246.259 124.806 249.277 127.224C249.776 127.638 250.258 128.086 250.731 128.559C250.925 128.754 251.492 129.379 252.422 130.427L249.328 133.546L233.13 149.741L233.147 149.749ZM243.427 130.731C242.734 130.199 241.178 129.929 238.76 129.929C235.844 129.929 233.358 130.968 231.287 133.031C229.216 135.101 228.184 137.603 228.184 140.536C228.184 142.937 228.455 144.492 228.987 145.202L243.435 130.731H243.427Z" fill="#1CC9C9"/>
<path d="M109.257 87.3308C108.148 87.3308 107.089 86.7072 106.574 85.6381C105.871 84.1632 106.495 82.3813 107.97 81.6785C111.683 79.9066 115.485 77.5209 117.089 76.0459C116.099 75.5312 114.802 75.1154 113.524 74.7096C109.465 73.4227 103.317 71.4825 103.455 63.7612C103.574 56.822 110.841 52.506 116.693 49.0314C119.257 47.507 122.455 45.6063 123.108 44.4184C123.702 43.3296 124.059 42.2209 124.128 41.2211L99.9007 8.24731L51.5051 85.2026C50.6339 86.5884 48.8022 87.0141 47.4062 86.1331C46.02 85.2619 45.5943 83.4306 46.4755 82.0349L97.1977 1.38726C97.7225 0.555743 98.6235 0.0310932 99.6037 0.00139601C100.594 -0.0283012 101.524 0.417156 102.109 1.20908L129.485 38.479C129.811 38.9245 130.009 39.459 130.049 40.0134C130.227 42.3297 129.603 44.9035 128.306 47.2793C126.881 49.8827 123.564 51.8526 119.722 54.1393C115.148 56.8616 109.455 60.247 109.396 63.8701C109.346 66.8893 110.891 67.6515 115.316 69.0473C117.841 69.8491 120.455 70.6707 122.386 72.6109C123.405 73.6207 123.841 75.0164 123.603 76.4122C122.93 80.3619 116.118 84.371 110.534 87.0339C110.118 87.2319 109.683 87.3209 109.257 87.3209V87.3308Z" fill="#54D077"/>
<path d="M134.6 88.6091C133.461 88.6091 132.372 87.9459 131.877 86.8372C131.214 85.3325 131.887 83.5804 133.392 82.9171C138.57 80.6206 140.075 78.7793 140.075 74.7009C140.075 72.9587 136.55 72.0381 132.283 71.0977C127.64 70.0682 121.848 68.7912 122.263 63.5744C122.64 58.8624 125.847 56.8628 128.689 55.1008C130.719 53.8337 132.818 52.537 134.788 50.082C137.6 46.5678 136.966 44.7464 135.392 41.2916C134.917 40.2522 135.085 39.0445 135.808 38.1635L156.322 13.3961C156.897 12.7032 157.768 12.2973 158.669 12.3171C159.57 12.3369 160.421 12.7626 160.976 13.4852L214.718 83.7883C215.718 85.0949 215.46 86.956 214.163 87.9558C212.866 88.9556 210.995 88.7081 209.995 87.4014L158.52 20.0681L141.55 40.5492C142.927 43.9149 143.847 48.2705 139.422 53.7941C136.828 57.041 134.055 58.7635 131.828 60.1493C129.194 61.7827 128.422 62.3964 128.224 63.7229C129.125 64.3168 131.867 64.9207 133.57 65.2968C138.828 66.455 146.026 68.0488 146.026 74.7009C146.026 82.7192 141.115 85.9957 135.808 88.3418C135.422 88.5101 135.006 88.5992 134.61 88.5992L134.6 88.6091Z" fill="#54D077"/>
</svg>
