<svg width="30" height="28" viewBox="0 0 30 28" fill="none" xmlns="http://www.w3.org/2000/svg">
<path d="M15.0335 0C17.1269 0 19.0758 0.364072 20.8802 1.0902C22.6839 1.81794 24.2648 2.816 25.6235 4.0852C26.9825 5.35238 28.0515 6.82766 28.8303 8.51104C29.61 10.196 30 12.0144 30 13.9693V28H15.0331C12.9847 28 11.0466 27.6367 9.22009 26.9082C7.39357 26.1817 5.79014 25.1735 4.41062 23.8849C3.02869 22.5963 1.9477 21.0996 1.16967 19.3952C0.38922 17.6908 0 15.8834 0 13.9701C0 12.0152 0.38922 10.1968 1.16967 8.51185C1.9477 6.82847 3.02869 5.35319 4.41062 4.08601C5.79014 2.81681 7.39397 1.81874 9.22009 1.091C11.047 0.364072 12.9847 0 15.0335 0ZM24.0534 22.4488V13.9693C24.0534 12.806 23.8198 11.7137 23.3524 10.6951C22.8849 9.67599 22.2385 8.78258 21.4151 8.01201C20.5893 7.24386 19.6323 6.64058 18.5413 6.20337C17.4495 5.76818 16.2798 5.54876 15.0335 5.54876C13.7864 5.54876 12.6059 5.76818 11.4928 6.20337C10.3789 6.64058 9.41029 7.24386 8.5857 8.01201C7.76112 8.78258 7.1163 9.67599 6.64883 10.6951C6.18097 11.7137 5.94743 12.806 5.94743 13.9693C5.94743 15.1326 6.18097 16.2337 6.64883 17.2742C7.1163 18.3143 7.76112 19.2182 8.5857 19.986C9.41029 20.7565 10.3789 21.359 11.4928 21.795C12.6059 22.2322 13.7864 22.45 15.0335 22.45H24.0534V22.4488V22.4488Z" fill="white"/>
</svg>
